<svg width="441" height="542" viewBox="0 0 441 542" fill="none" xmlns="http://www.w3.org/2000/svg">
<g opacity="0.05" clip-path="url(#clip0_27_527)">
<path d="M402.117 126.416C404.418 118.361 406.616 110.451 409.003 102.593C409.285 101.678 410.448 100.848 411.389 100.335C433.858 87.9617 444.464 60.1452 439.991 34.9452C434.328 3.04129 409.199 -19.3368 376.834 -21.885C345.521 -24.3562 253.283 -31.4622 221.987 -29.7263C159.421 -26.2546 97.7182 -17.1135 37.2985 -0.0969353C10.5613 7.43653 -15.5516 16.6973 -41.271 27.1552C-44.641 28.5234 -48.4471 28.8227 -52.0138 29.7548C-77.7674 36.4331 -99.2359 60.5129 -103.025 87.1921C-107.49 118.66 -96.6015 143.894 -71.5322 163.108C-68.6925 165.289 -67.4951 167.29 -68.1366 170.873C-70.0525 181.527 -67.0503 191.216 -61.4821 200.177C-50.6624 217.587 -39.7827 234.963 -28.7748 252.253C-26.4056 255.973 -25.1996 259.658 -25.2423 264.165C-25.4647 289.099 -25.191 314.034 -25.5075 338.969C-25.6786 352.044 -21.3763 362.638 -9.76968 369.009C2.24753 375.61 14.3161 374.567 25.7517 366.897C26.0938 366.666 26.4702 366.495 27.1972 366.102C29.9599 370.223 32.7567 374.285 35.4339 378.424C57.3985 412.363 79.3203 446.327 101.353 480.232C103.389 483.362 104.236 486.483 104.201 490.194C104.056 508.434 104.27 526.673 104.039 544.912C103.859 558.782 109.581 569.266 121.667 575.739C133.47 582.058 145.009 580.476 155.709 572.541C156.282 572.122 156.889 571.746 157.924 571.053C159.19 573.028 160.37 575.063 161.739 576.97C167.538 585.06 172.892 593.525 179.315 601.093C193.745 618.109 212.339 625.215 234.329 620.683C255.362 616.348 267.858 601.914 274.016 582.246C280.902 560.27 286.726 537.952 292.825 515.736C303.884 475.418 314.806 435.049 325.797 394.713C326.156 393.379 326.747 392.114 327.285 390.66C336.574 393.747 345.393 394.004 353.869 389.001C363.611 383.255 368.093 374.618 368.11 363.485C368.153 336.695 368.238 309.913 368.135 283.122C368.118 279.847 369.282 278.034 371.899 276.221C399.038 257.452 412.193 231.542 410.08 198.552C409.293 186.256 413.587 177.517 424.159 171.711C428.042 169.581 429.804 166.007 429.616 162.219C429.205 154.044 428.35 145.835 426.879 137.789C425.767 131.726 420.96 128.425 415.118 127.408C410.579 126.621 406.254 126.296 402.143 126.433L402.117 126.416ZM330.194 293.649C329.963 294.546 329.552 296.188 329.099 297.821C321.649 324.988 314.156 352.155 306.741 379.33C300.035 403.906 293.441 428.507 286.658 453.066C286.282 454.434 284.785 456.144 283.485 456.503C278.165 457.983 272.554 458.513 267.345 460.283C245.226 467.791 231.088 489.929 232.952 513.154C234.321 530.128 242.207 543.305 255.464 553.635C256.67 554.575 258.15 556.559 257.902 557.705C256.841 562.536 255.627 567.444 253.617 571.934C250.427 579.074 242.96 582.067 235.433 580.091C226.914 577.86 221.756 571.54 217.206 564.785C206.472 548.846 196.054 532.693 185.414 516.685C184.003 514.556 184.225 513.239 185.747 511.153C198.09 494.239 199.869 475.854 191.085 457.136C181.548 436.81 159.823 425.95 136.096 428.516C133.017 428.849 131.332 428.182 129.622 425.506C103.782 385.076 77.8235 344.732 51.9073 304.354C51.1889 303.234 50.6757 301.977 49.6407 299.942C51.5823 300.652 52.6087 300.977 53.6009 301.404C73.0679 309.819 93.2962 312.546 114.157 308.673C149.533 302.106 174.286 282.327 187.535 248.593C191.949 237.348 192.034 225.522 192.658 213.722C193.078 205.718 198.859 200.04 206.814 199.142C216.488 198.048 223.843 204.581 225.323 215.578C230.31 252.672 258.911 283.738 295.579 290.716C306.775 292.845 318.407 292.716 330.194 293.649ZM-8.14456 40.3324C-7.01553 39.8364 -6.27142 39.4687 -5.4931 39.1695C18.4558 29.9942 43.0976 23.1191 68.0044 17.1078C111.839 6.53012 156.35 0.390472 201.22 -3.4746C239.898 -6.80095 336.951 -2.38007 379.537 1.8356C407.523 3.77669 424.826 26.7875 420.028 54.4587C417.487 69.0896 406.462 82.2069 387.577 81.3432C368.272 80.4625 286.684 79.5218 267.353 79.9323C233.714 80.6335 200.279 79.2568 167.059 84.661C120.598 92.2201 74.9582 102.926 30.858 119.66C28.5144 120.55 26.1366 121.328 23.6647 122.192C23.7588 78.8292 18.9263 66.3361 -8.13599 40.3239L-8.14456 40.3324ZM26.4017 218.126C26.4017 210.994 25.6919 205.342 26.5301 199.938C29.1559 182.989 39.7105 172.053 54.7897 165.066C65.6779 160.021 77.3958 158.482 89.2078 157.747C106.331 156.678 123.438 156.635 139.783 162.843C153.93 168.213 164.809 177.944 167.469 192.9C169.65 205.154 169.975 218.348 167.983 230.619C164.202 253.886 150.021 270.68 128.818 280.677C103.894 292.426 78.8584 291.63 55.6365 276.41C34.4247 262.514 24.828 242.017 26.4103 218.134L26.4017 218.126ZM387.183 197.03C387.183 199.023 387.141 201.015 387.183 203.007C387.799 227.044 377.031 245.147 357.692 258.452C342.818 268.688 326.002 271.022 308.314 269.577C281.492 267.388 254.823 245.173 249.426 218.793C247.433 209.027 248.16 198.706 247.724 188.633C247.33 179.561 250.324 171.565 255.832 164.468C262.871 155.404 271.45 148.281 282.424 144.484C306.535 136.147 331.203 136.061 355.656 141.688C371.882 145.425 382.445 156.618 385.729 173.233C387.26 180.971 387.295 197.022 387.175 197.03H387.183ZM16.2748 153.24C16.1807 152.873 16.0866 152.514 15.984 152.146C17.9341 151.06 19.8244 149.837 21.8429 148.914C52.3863 134.984 84.4522 125.68 116.963 117.771C118.1 117.497 119.974 118.198 120.829 119.096C136.139 135.172 154.614 140.072 175.783 134.249C191.102 130.033 200.724 118.925 207.823 105.397C209.183 102.798 210.706 101.703 213.605 101.421C245.543 98.2828 341.304 99.9417 373.353 100.557C377.724 100.643 382.094 100.566 387.218 100.566C385.404 106.962 383.694 112.623 382.214 118.352C381.564 120.858 380.478 121.935 377.672 122.183C350.482 124.543 260.425 128.707 236.263 141.534C223.304 148.418 210.056 151.051 195.712 151.145C187.766 151.197 180.222 150.273 172.678 147.836C152.441 141.286 131.46 139.576 110.36 138.952C86.12 138.233 62.4705 142.492 38.9578 147.725C31.3626 149.418 23.8358 151.393 16.2748 153.232V153.24ZM-82.8566 100.934C-82.446 81.805 -77.3227 68.2601 -64.9206 58.0502C-53.5021 48.644 -38.6537 47.5751 -25.8753 55.1172C-3.58569 68.2772 8.31177 100.002 0.246124 124.765C-8.99988 153.146 -39.7742 162.21 -62.3289 143.039C-76.2963 131.17 -82.6427 115.693 -82.8566 100.942V100.934ZM37.9058 324.8C39.7362 327.34 41.1218 329.11 42.3363 330.991C45.8773 336.489 49.3243 342.047 52.8568 347.554C88.8143 403.598 125.542 459.128 163.868 513.599C164.98 515.172 165.34 517.275 166.049 519.14C163.971 519.713 161.91 520.405 159.797 520.798C158.882 520.97 157.83 520.602 156.872 520.362C149.747 518.618 146.865 520.807 146.788 528.229C146.711 534.779 146.89 541.338 146.702 547.888C146.574 552.54 143.734 555.507 139.569 557.081C135.455 558.637 131.281 557.919 128.723 554.464C126.842 551.916 125.456 548.35 125.405 545.203C125.097 526.263 124.994 507.305 125.345 488.364C125.473 481.284 123.438 475.444 119.674 469.621C94.2798 430.294 69.2788 390.711 43.6107 351.573C38.2137 343.347 36.5287 335.19 37.9058 324.8ZM-48.5669 174.951C-39.3893 173.968 -39.4321 173.985 -36.6181 180.561C-35.7285 182.647 -34.6423 184.657 -33.4962 186.615C-29.7499 192.986 -25.6957 199.185 -22.2573 205.718C-20.6151 208.848 -18.6137 210.797 -15.3806 212.14C-5.74112 216.15 1.35806 223.179 3.43649 233.355C7.92691 255.408 17.7545 274.255 34.0226 289.809C35.5194 291.237 36.7768 293.118 37.5807 295.025C39.3684 299.275 37.3413 302.422 32.7054 302.601C30.4816 302.687 28.1894 302.217 26.0083 301.669C21.5435 300.558 18.1052 302.259 16.8821 306.715C16.3603 308.604 16.2234 310.648 16.2149 312.623C16.1721 321.739 16.3175 330.854 16.2149 339.961C16.1892 342.167 15.9241 344.596 14.9747 346.528C12.8022 350.958 7.99533 352.882 3.48779 351.65C-1.59277 350.265 -4.39828 346.323 -4.41537 340.406C-4.45816 314.487 -4.74039 288.561 -4.3555 262.642C-4.2272 254.117 -6.37402 246.994 -10.9671 239.88C-22.3941 222.196 -33.3166 204.188 -44.2133 186.162C-46.1549 182.947 -46.9846 179.065 -48.5327 174.926L-48.5669 174.951ZM239.265 595.364C233.791 599.665 226.982 601.452 220.687 600.836C206.848 599.494 197.029 591.815 189.408 580.887C183.31 572.148 177.896 562.921 171.566 554.353C167.589 548.966 169 543.587 169.642 537.721C171.515 538.704 173.072 539.842 174.115 541.338C181.291 551.582 188.322 561.92 195.464 572.182C205.916 587.197 218.703 597.955 239.248 595.355L239.265 595.364ZM346.137 320.328C346.333 320.371 346.539 320.413 346.735 320.456C346.735 334.129 346.812 347.811 346.701 361.484C346.65 368.017 342.057 371.899 336.608 370.334C334.094 369.607 332.511 368.068 333.29 365.306C337.524 350.299 341.843 335.318 346.137 320.328ZM9.19275 192.558C4.31744 192.541 0.434265 188.804 0.340179 184.05C0.254639 179.372 4.17203 175.576 9.14145 175.516C14.1023 175.465 17.8828 179.15 17.8999 184.041C17.9084 188.95 14.2135 192.575 9.20132 192.558H9.19275ZM391.443 152.317C391.357 147.742 395.275 144.031 400.304 143.911C405.008 143.8 408.849 147.417 408.908 151.992C408.968 156.327 404.991 160.355 400.518 160.492C395.642 160.646 391.528 156.943 391.443 152.308V152.317Z" fill="#1D1E19"/>
<path d="M389.501 381.758C391.297 384.298 392.615 387.496 394.992 389.258C400.697 393.473 406.787 397.21 412.937 400.767C417.812 403.589 422.765 402.281 425.707 397.988C428.641 393.713 428.444 387.402 424.287 384.443C417.479 379.595 410.345 375.072 402.938 371.215C397.507 368.393 390.322 374.456 389.493 381.758H389.501Z" fill="#1D1E19"/>
<path d="M360.326 549.145C366.596 549.077 372.301 543.168 372.138 536.909C371.967 530.153 366.374 524.552 359.847 524.595C352.945 524.646 347.779 529.905 347.77 536.883C347.77 543.903 353.21 549.222 360.326 549.145Z" fill="#1D1E19"/>
<path d="M26.8295 537.191C26.8637 544.015 32.2265 549.248 39.1033 549.171C45.8603 549.094 51.1804 543.331 51.0264 536.259C50.8896 529.991 45.4668 524.706 39.1289 524.664C32.2265 524.621 26.7952 530.153 26.8295 537.191Z" fill="#1D1E19"/>
<path d="M9.10723 470.518C15.7531 470.553 20.8508 465.542 20.8251 459.009C20.7994 452.672 15.3596 447.431 8.91053 447.525C2.73513 447.61 -2.58496 452.912 -2.59351 458.983C-2.59351 465.576 2.38444 470.484 9.10723 470.518Z" fill="#1D1E19"/>
<path d="M407.035 458.769C407.129 452.766 401.732 447.448 395.557 447.473C389.441 447.499 384.284 452.715 384.198 458.966C384.113 465.43 388.877 470.364 395.309 470.476C402.203 470.595 406.916 465.884 407.035 458.761V458.769Z" fill="#1D1E19"/>
<path d="M414.075 317.686C414.015 322.731 417.812 326.767 422.756 326.921C427.974 327.075 432.259 322.919 432.387 317.583C432.507 312.76 428.085 308.237 423.175 308.16C418.539 308.083 414.134 312.7 414.075 317.694V317.686Z" fill="#1D1E19"/>
<path d="M123.532 340.534C124.156 375.285 152.707 408.771 188.006 414.62C223.535 420.503 252.522 409.122 272.827 379.142C284.716 361.587 289.07 341.774 284.331 320.533C283.613 317.309 282.082 316.189 278.763 316.394C250.64 318.087 222.501 319.575 194.369 321.26C175.065 322.414 155.777 323.774 136.473 325.048C135.19 325.133 133.915 325.219 132.641 325.347C125.653 326.066 123.609 328.349 123.532 335.506C123.515 336.934 123.532 338.353 123.532 340.542V340.534ZM159.523 376.944C161.131 375.491 162.286 374.234 163.638 373.259C178.571 362.493 195.336 359.004 213.349 361.39C223.553 362.741 232.73 366.94 240.522 373.755C246.184 378.706 245.945 380.878 239.675 385.042C228.744 392.302 216.719 396.321 203.598 396.364C186.372 396.424 171.866 389.95 159.532 376.961L159.523 376.944Z" fill="#1D1E19"/>
<path d="M220.567 259.598C213.511 258.068 206.078 259.059 199.937 262.865C193.642 266.764 188.827 273.04 187.21 280.317C186.081 285.38 187.843 290.296 191.658 292.768C196.251 295.726 201.631 293.837 203.282 288.612C203.923 286.594 203.966 284.302 204.932 282.489C207.105 278.428 210.731 276.281 215.41 276.341C219.926 276.41 223.185 278.479 225.246 282.618C227.632 287.389 231.285 289.228 235.091 287.902C239.248 286.448 241.771 282.036 241.027 277.256C240.077 271.193 236.605 266.499 231.421 263.831C227.701 261.916 224.844 260.522 220.567 259.59V259.598Z" fill="#1D1E19"/>
<path d="M102.559 57.7936C100.421 57.7337 96.5293 59.1617 93.7752 59.8031C85.2135 61.7955 76.6261 63.6938 68.1071 65.8401C61.5126 67.499 58.9552 71.0049 60.3579 75.8363C61.8034 80.8215 66.3109 82.8823 72.3238 81.4201C82.2369 79.0087 92.2527 76.965 102.038 74.109C104.561 73.3736 106.956 72.3646 108.812 70.2268C109.376 69.5769 109.795 68.8244 110.095 68.0206C110.762 66.2078 111.164 63.8819 109.53 61.2311C107.452 57.8791 104.107 57.8449 102.576 57.8021L102.559 57.7936Z" fill="#1D1E19"/>
<path d="M66.7814 32.9015C64.7799 32.4397 62.6929 32.5509 60.7 33.0383C58.4078 33.6112 55.4997 34.3295 52.6002 35.1076C46.1596 36.8264 39.6849 38.4169 33.3299 40.4264C28.5144 41.9485 26.3847 45.9418 27.6848 49.9009C29.0704 54.1423 32.6028 55.9209 37.6064 54.6895C47.2459 52.3123 56.8853 49.9009 66.482 47.3784C70.9639 46.1983 73.3673 42.8121 72.7686 39.0411C72.2725 35.9029 70.3224 33.7224 66.7728 32.9015H66.7814Z" fill="#1D1E19"/>
<path d="M156.675 212.396C134.591 213.311 112.661 214.226 89.9091 215.176C102.02 200.912 113.533 187.359 125.046 173.806L124.473 172.429C111.728 172.429 98.9413 171.865 86.2398 172.617C77.2419 173.147 68.0387 174.481 59.4855 177.192C44.9194 181.818 37.4012 194.106 38.0854 209.352C38.3249 214.757 38.1795 220.186 38.7355 225.557C41.2073 249.465 56.834 268.526 80.0217 274.332C116.51 283.473 150.91 261.274 156.615 223.462C157.12 220.135 156.684 216.663 156.684 212.388L156.675 212.396ZM111.591 233.466C111.463 229.191 115.517 225.155 120.093 225.018C124.567 224.881 128.279 228.336 128.552 232.885C128.818 237.331 124.952 241.47 120.401 241.615C115.945 241.761 111.728 237.861 111.591 233.475V233.466Z" fill="#1D1E19"/>
<path d="M344.409 154.053C326.61 152.779 309.974 152.591 293.389 154.831C276.634 157.097 261.914 169.351 259.416 184.229C253.164 221.392 274.076 250.543 306.364 257.093C332.212 262.343 359.942 248.414 370.719 224.453C375.183 214.526 374.046 204.162 373.84 192.96C352.902 193.901 332.281 194.824 310.538 195.799C322.102 181.553 332.973 168.153 344.409 154.061V154.053ZM345.478 220.768C341.159 220.905 337.224 217.536 336.968 213.457C336.711 209.404 340.663 205.248 344.965 205.06C349.584 204.855 353.364 208.164 353.621 212.645C353.86 216.894 350.131 220.614 345.478 220.759V220.768Z" fill="#1D1E19"/>
</g>
<defs>
<clipPath id="clip0_27_527">
<rect width="545" height="652" fill="white" transform="matrix(-1 0 0 1 441 -30)"/>
</clipPath>
</defs>
</svg>
