<svg width="267" height="267" viewBox="0 0 267 267" fill="none" xmlns="http://www.w3.org/2000/svg">
<g filter="url(#filter0_d_31_787)">
<path d="M133.501 255.002C201.709 255.002 257.002 199.709 257.002 131.501C257.002 63.2934 201.709 8 133.501 8C65.2934 8 10 63.2934 10 131.501C10 199.709 65.2934 255.002 133.501 255.002Z" fill="white"/>
<path d="M104.804 103.229L99.3564 96.6921L100.446 91.2448L103.714 86.8871L118.966 85.7976H132.04L146.203 87.9765L163.634 93.4237L169.081 94.5132L172.349 99.9604V105.408L167.991 110.855L169.081 114.123L162.544 123.928L161.455 138.091L158.186 140.27L157.097 138.091L145.113 156.612L144.024 167.506L140.755 169.685L138.576 167.506L133.129 174.043L126.593 175.132L123.324 170.774L115.698 143.541L110.251 141.362L109.161 134.825L111.34 131.557L109.161 127.199L103.714 116.305L102.625 109.768L104.804 103.231V103.229Z" fill="white"/>
<path d="M103.707 106.096C103.386 104.939 103.076 103.801 102.743 102.673C102.704 102.543 102.54 102.422 102.41 102.349C99.267 100.571 97.7814 96.5736 98.407 92.9526C99.1993 88.3677 102.716 85.1525 107.243 84.7878C111.625 84.4327 124.53 83.4109 128.909 83.6621C137.663 84.1621 146.297 85.4738 154.751 87.9184C158.493 89.0006 162.146 90.3316 165.745 91.8342C166.216 92.0298 166.75 92.0733 167.247 92.2086C170.852 93.1676 173.854 96.6292 174.386 100.463C175.011 104.985 173.487 108.611 169.98 111.372C169.581 111.686 169.414 111.973 169.504 112.488C169.772 114.019 169.351 115.411 168.574 116.698C167.059 119.201 165.537 121.696 163.996 124.182C163.665 124.716 163.496 125.247 163.501 125.894C163.532 129.477 163.494 133.059 163.537 136.644C163.561 138.523 162.96 140.045 161.334 140.961C159.653 141.91 157.964 141.76 156.363 140.656C156.314 140.623 156.261 140.598 156.16 140.543C155.773 141.135 155.382 141.719 155.008 142.313C151.935 147.191 148.867 152.07 145.785 156.942C145.5 157.392 145.381 157.841 145.386 158.375C145.405 160.996 145.376 163.617 145.408 166.238C145.432 168.231 144.632 169.738 142.941 170.668C141.289 171.576 139.676 171.349 138.178 170.209C138.098 170.149 138.014 170.096 137.869 169.997C137.692 170.282 137.526 170.574 137.335 170.847C136.523 172.009 135.774 173.226 134.876 174.313C132.856 176.758 130.255 177.78 127.177 177.127C124.235 176.504 122.486 174.432 121.624 171.605C120.66 168.448 119.846 165.24 118.993 162.049C117.445 156.256 115.918 150.454 114.379 144.659C114.328 144.468 114.246 144.285 114.171 144.077C112.872 144.521 111.637 144.558 110.451 143.838C109.089 143.012 108.461 141.77 108.458 140.171C108.451 136.32 108.442 132.472 108.454 128.624C108.454 128.153 108.294 127.892 107.927 127.634C104.13 124.935 102.289 121.213 102.584 116.474C102.695 114.708 102.093 113.452 100.615 112.616C100.071 112.309 99.825 111.797 99.8516 111.251C99.9095 110.077 100.028 108.896 100.233 107.741C100.388 106.869 101.062 106.396 101.878 106.251C102.514 106.137 103.117 106.091 103.695 106.11H103.697L103.707 106.096ZM113.77 130.127C113.802 130.255 113.86 130.491 113.923 130.726C114.964 134.629 116.015 138.533 117.051 142.437C117.988 145.968 118.911 149.502 119.86 153.032C119.913 153.227 120.123 153.474 120.305 153.524C121.049 153.737 121.834 153.814 122.563 154.068C125.658 155.148 127.636 158.327 127.375 161.665C127.184 164.105 126.08 165.999 124.225 167.482C124.056 167.617 123.848 167.902 123.885 168.066C124.034 168.76 124.203 169.465 124.484 170.11C124.931 171.137 125.974 171.567 127.027 171.282C128.218 170.96 128.941 170.052 129.578 169.081C131.081 166.791 132.537 164.47 134.025 162.17C134.223 161.863 134.192 161.675 133.98 161.375C132.252 158.945 132.004 156.302 133.233 153.614C134.566 150.693 137.608 149.133 140.927 149.502C141.357 149.551 141.594 149.454 141.833 149.07C145.449 143.26 149.08 137.463 152.705 131.661C152.807 131.499 152.877 131.32 153.022 131.028C152.751 131.129 152.606 131.177 152.469 131.238C149.744 132.446 146.915 132.839 143.995 132.281C139.045 131.337 135.581 128.496 133.728 123.648C133.11 122.032 133.098 120.334 133.011 118.638C132.953 117.488 132.144 116.672 131.03 116.544C129.677 116.387 128.648 117.326 128.44 118.906C127.742 124.237 123.74 128.699 118.611 129.704C117.046 130.011 115.418 129.991 113.768 130.124L113.77 130.127ZM161.112 93.7256C160.955 93.6555 160.848 93.6024 160.74 93.5589C157.389 92.24 153.94 91.252 150.456 90.3896C144.323 88.8702 138.096 87.9885 131.818 87.4329C126.407 86.9546 112.826 87.5899 106.867 88.1962C102.951 88.474 100.53 91.781 101.202 95.7571C101.557 97.8587 103.101 99.7453 105.743 99.6197C108.444 99.4941 119.86 99.3588 122.566 99.4168C127.271 99.5183 131.95 99.3202 136.598 100.096C143.098 101.183 149.485 102.719 155.655 105.125C155.983 105.253 156.314 105.364 156.662 105.49C156.65 99.2598 157.324 97.4626 161.112 93.7256ZM156.278 119.273C156.278 118.249 156.377 117.437 156.261 116.66C155.894 114.225 154.418 112.652 152.307 111.65C150.783 110.925 149.145 110.703 147.49 110.599C145.094 110.444 142.7 110.439 140.415 111.331C138.436 112.101 136.912 113.5 136.54 115.65C136.236 117.411 136.19 119.307 136.468 121.07C136.997 124.414 138.98 126.827 141.949 128.264C145.437 129.953 148.939 129.839 152.188 127.651C155.157 125.653 156.498 122.708 156.278 119.278V119.273ZM105.796 116.242C105.796 116.529 105.801 116.814 105.796 117.102C105.709 120.556 107.217 123.158 109.922 125.068C112.005 126.539 114.357 126.875 116.831 126.667C120.585 126.353 124.315 123.16 125.071 119.37C125.348 117.966 125.247 116.483 125.31 115.036C125.365 113.732 124.945 112.584 124.174 111.565C123.189 110.263 121.988 109.239 120.454 108.693C117.08 107.495 113.63 107.483 110.207 108.292C107.937 108.828 106.458 110.437 105.999 112.824C105.784 113.935 105.78 116.242 105.796 116.244V116.242ZM157.694 109.951C157.706 109.898 157.72 109.847 157.735 109.794C157.462 109.637 157.196 109.463 156.916 109.331C152.643 107.328 148.154 105.992 143.606 104.857C143.446 104.818 143.185 104.917 143.065 105.048C140.922 107.357 138.337 108.062 135.376 107.224C133.233 106.618 131.885 105.021 130.892 103.079C130.701 102.704 130.489 102.547 130.083 102.506C125.614 102.055 112.215 102.294 107.731 102.383C107.12 102.395 106.509 102.383 105.792 102.383C106.045 103.304 106.284 104.115 106.492 104.939C106.584 105.299 106.736 105.453 107.127 105.49C110.932 105.828 123.532 106.427 126.914 108.27C128.728 109.258 130.581 109.637 132.588 109.652C133.699 109.659 134.755 109.526 135.811 109.176C138.642 108.234 141.577 107.99 144.531 107.9C147.922 107.797 151.232 108.41 154.522 109.161C155.585 109.405 156.638 109.688 157.696 109.954L157.694 109.951ZM171.564 102.434C171.506 99.6849 170.789 97.7379 169.054 96.2717C167.458 94.9189 165.38 94.7667 163.59 95.8489C160.472 97.7404 158.807 102.299 159.935 105.857C161.228 109.934 165.535 111.236 168.69 108.483C170.644 106.777 171.533 104.552 171.562 102.434H171.564ZM154.667 134.603C154.411 134.968 154.218 135.221 154.046 135.492C153.551 136.282 153.068 137.081 152.575 137.871C147.543 145.925 142.405 153.904 137.043 161.73C136.888 161.957 136.837 162.259 136.738 162.527C137.028 162.61 137.318 162.709 137.613 162.767C137.741 162.791 137.888 162.738 138.021 162.704C139.018 162.453 139.422 162.767 139.432 163.834C139.444 164.776 139.417 165.718 139.444 166.658C139.461 167.327 139.859 167.752 140.441 167.979C141.016 168.204 141.601 168.1 141.958 167.603C142.222 167.235 142.415 166.723 142.422 166.272C142.466 163.549 142.48 160.827 142.432 158.104C142.415 157.087 142.697 156.247 143.224 155.411C146.777 149.761 150.275 144.072 153.867 138.448C154.623 137.267 154.858 136.093 154.664 134.6L154.667 134.603ZM166.767 113.07C165.482 112.93 165.489 112.932 165.095 113.877C164.972 114.176 164.82 114.466 164.658 114.746C164.134 115.662 163.566 116.553 163.085 117.491C162.856 117.94 162.576 118.22 162.124 118.413C160.776 118.991 159.781 120 159.491 121.462C158.863 124.631 157.488 127.339 155.21 129.573C155 129.779 154.824 130.049 154.713 130.322C154.462 130.933 154.747 131.385 155.394 131.412C155.706 131.424 156.027 131.356 156.331 131.279C156.957 131.119 157.438 131.363 157.609 132.004C157.682 132.274 157.701 132.569 157.703 132.851C157.711 134.161 157.689 135.47 157.703 136.779C157.708 137.096 157.744 137.446 157.877 137.724C158.182 138.359 158.853 138.637 159.484 138.461C160.194 138.262 160.588 137.695 160.59 136.844C160.597 133.12 160.636 129.395 160.583 125.67C160.566 124.445 160.865 123.421 161.508 122.399C163.107 119.858 164.636 117.271 166.16 114.681C166.431 114.22 166.549 113.662 166.764 113.067L166.769 113.072L166.767 113.07ZM126.493 173.48C127.259 174.098 128.211 174.354 129.093 174.267C131.03 174.074 132.402 172.97 133.47 171.4C134.323 170.144 135.081 168.818 135.965 167.588C136.521 166.815 136.325 166.042 136.233 165.199C135.97 165.342 135.753 165.503 135.608 165.718C134.603 167.19 133.62 168.675 132.62 170.151C131.158 172.308 129.368 173.854 126.493 173.48ZM111.541 133.958C111.514 133.965 111.485 133.97 111.456 133.977C111.456 135.941 111.447 137.907 111.461 139.871C111.468 140.811 112.111 141.369 112.874 141.142C113.227 141.038 113.447 140.816 113.338 140.42C112.746 138.262 112.142 136.11 111.541 133.955V133.958ZM158.687 115.599C159.368 115.599 159.911 115.06 159.926 114.377C159.938 113.705 159.389 113.159 158.694 113.15C158 113.142 157.471 113.671 157.469 114.374C157.469 115.08 157.986 115.601 158.687 115.599ZM105.202 109.818C105.214 109.161 104.666 108.628 103.963 108.611C103.306 108.594 102.767 109.116 102.76 109.773C102.75 110.396 103.308 110.976 103.934 110.995C104.615 111.017 105.193 110.485 105.205 109.818H105.202Z" fill="#1D1E19"/>
<path d="M142.688 136.861C142.601 141.854 138.605 146.666 133.665 147.507C128.694 148.352 124.638 146.717 121.798 142.41C120.133 139.888 119.524 137.04 120.189 133.989C120.29 133.525 120.503 133.366 120.969 133.395C124.904 133.639 128.841 133.851 132.777 134.093C135.477 134.26 138.175 134.455 140.879 134.637C141.057 134.649 141.236 134.661 141.415 134.68C142.393 134.784 142.678 135.11 142.69 136.139C142.69 136.344 142.69 136.547 142.69 136.864L142.688 136.861ZM137.651 142.094C137.427 141.886 137.265 141.705 137.076 141.565C134.987 140.019 132.641 139.516 130.122 139.859C128.694 140.052 127.409 140.656 126.32 141.637C125.527 142.347 125.561 142.661 126.438 143.258C127.967 144.301 129.651 144.879 131.487 144.884C133.897 144.893 135.926 143.961 137.651 142.096V142.094Z" fill="#1D1E19"/>
<path d="M129.11 125.233C130.098 125.013 131.136 125.155 131.996 125.701C132.878 126.262 133.552 127.163 133.777 128.209C133.934 128.936 133.687 129.644 133.153 129.999C132.511 130.424 131.757 130.153 131.528 129.402C131.438 129.112 131.431 128.784 131.296 128.523C130.991 127.938 130.484 127.631 129.829 127.639C129.197 127.648 128.742 127.945 128.453 128.54C128.119 129.226 127.607 129.489 127.076 129.298C126.493 129.09 126.141 128.455 126.245 127.769C126.378 126.897 126.863 126.223 127.588 125.839C128.107 125.564 128.508 125.363 129.107 125.23L129.11 125.233Z" fill="#1D1E19"/>
<path d="M112.869 95.4334C112.273 95.4165 111.826 95.1387 111.787 94.5758C111.746 94.013 112.063 93.6047 112.666 93.4501C112.819 93.4115 112.978 93.3704 113.135 93.3656C115.104 93.3197 117.073 93.2714 119.044 93.24C119.73 93.2279 120.232 93.67 120.252 94.2449C120.273 94.8995 119.768 95.4261 119.073 95.431C117.561 95.443 114.539 95.4358 114.539 95.4358C114.539 95.4358 113.427 95.4527 112.869 95.4358V95.4334Z" fill="#1D1E19"/>
<path d="M145.62 96.2354C145.92 96.2258 146.463 96.4311 146.85 96.5253C148.048 96.8128 149.249 97.0833 150.442 97.3925C151.365 97.6317 151.722 98.1341 151.527 98.8298C151.324 99.5473 150.693 99.842 149.853 99.6318C148.466 99.2864 147.065 98.9917 145.695 98.581C145.343 98.4747 145.007 98.3298 144.748 98.023C144.669 97.9288 144.611 97.8225 144.57 97.7066C144.475 97.4457 144.42 97.1123 144.649 96.7306C144.939 96.2499 145.408 96.2451 145.623 96.2379L145.62 96.2354Z" fill="#1D1E19"/>
<path d="M150.628 92.6578C150.908 92.5926 151.2 92.6071 151.478 92.6771C151.8 92.7593 152.205 92.8631 152.611 92.9743C153.512 93.2207 154.418 93.4501 155.307 93.7376C155.981 93.9574 156.278 94.5299 156.097 95.1C155.904 95.7088 155.409 95.9648 154.708 95.7885C153.36 95.4479 152.01 95.1 150.667 94.7377C150.039 94.5686 149.703 94.0806 149.787 93.5395C149.857 93.0878 150.13 92.7762 150.626 92.6578H150.628Z" fill="#1D1E19"/>
<path d="M138.05 118.449C141.139 118.58 144.207 118.713 147.391 118.848C145.695 116.8 144.086 114.85 142.475 112.903L142.555 112.705C144.338 112.705 146.128 112.623 147.906 112.732C149.164 112.806 150.452 113 151.65 113.389C153.689 114.053 154.739 115.819 154.645 118.01C154.611 118.785 154.633 119.565 154.553 120.338C154.208 123.773 152.022 126.513 148.778 127.346C143.671 128.66 138.859 125.469 138.059 120.036C137.989 119.558 138.05 119.061 138.05 118.445V118.449ZM144.357 121.476C144.374 120.863 143.809 120.283 143.169 120.264C142.543 120.244 142.024 120.739 141.985 121.394C141.949 122.032 142.49 122.628 143.125 122.648C143.748 122.669 144.338 122.109 144.357 121.479V121.476Z" fill="#1D1E19"/>
<path d="M111.782 110.067C114.273 109.884 116.602 109.857 118.921 110.178C121.266 110.504 123.324 112.265 123.674 114.403C124.549 119.744 121.624 123.933 117.106 124.873C113.49 125.626 109.611 123.626 108.101 120.181C107.475 118.756 107.635 117.266 107.664 115.657C110.594 115.792 113.478 115.925 116.522 116.065C114.903 114.019 113.381 112.094 111.782 110.067ZM111.633 119.652C112.236 119.672 112.787 119.189 112.823 118.602C112.86 118.019 112.307 117.423 111.705 117.396C111.058 117.367 110.529 117.843 110.495 118.486C110.461 119.097 110.983 119.631 111.635 119.652H111.633Z" fill="#1D1E19"/>
<path d="M162.452 105.751C161.938 104.726 161.759 103.557 161.943 102.422C162.17 101.018 162.646 99.8758 163.535 98.912C164.491 97.8757 165.658 97.2911 167.076 97.6679C168.479 98.0424 169.257 99.0811 169.634 100.477C170.311 102.982 169.091 105.963 166.902 107.142C165.221 108.045 163.329 107.5 162.462 105.772C162.457 105.765 162.455 105.758 162.45 105.751H162.452Z" fill="#1D1E19"/>
<path d="M153.027 179.951C152.718 179.951 152.406 179.843 152.152 179.623L147.019 175.142C146.466 174.659 146.41 173.82 146.891 173.267C147.374 172.714 148.212 172.659 148.766 173.139L153.899 177.62C154.452 178.103 154.507 178.942 154.027 179.495C153.763 179.797 153.396 179.949 153.027 179.949V179.951Z" fill="#1D1E19"/>
<path d="M120.428 189.346C120.268 189.346 120.109 189.317 119.952 189.256C119.266 188.993 118.925 188.225 119.189 187.539L121.203 182.287C121.467 181.601 122.235 181.26 122.921 181.524C123.607 181.787 123.947 182.555 123.684 183.241L121.669 188.493C121.467 189.022 120.964 189.346 120.428 189.346Z" fill="#1D1E19"/>
<path d="M101.946 164.735C101.448 164.735 100.972 164.455 100.745 163.977C100.431 163.315 100.714 162.523 101.376 162.206L107.055 159.51C107.719 159.196 108.509 159.479 108.826 160.141C109.142 160.803 108.857 161.595 108.195 161.911L102.516 164.607C102.332 164.694 102.139 164.735 101.948 164.735H101.946Z" fill="#1D1E19"/>
<path d="M88.6648 119.365C87.9329 119.365 87.3386 118.773 87.3362 118.039C87.3362 117.304 87.928 116.708 88.6624 116.708L95.9189 116.688H95.9238C96.6557 116.688 97.2499 117.28 97.2524 118.015C97.2524 118.749 96.6605 119.346 95.9262 119.346L88.6696 119.365H88.6648Z" fill="#1D1E19"/>
<path d="M93.5854 142.864C93.0105 142.864 92.4815 142.49 92.3124 141.91C92.1047 141.207 92.5081 140.468 93.211 140.26L99.854 138.304C100.557 138.096 101.296 138.499 101.504 139.202C101.712 139.905 101.308 140.644 100.605 140.852L93.9623 142.809C93.8367 142.845 93.711 142.862 93.5854 142.862V142.864Z" fill="#1D1E19"/>
<path d="M168.337 155.005C168.148 155.005 167.955 154.964 167.772 154.879L161.305 151.836C160.641 151.524 160.356 150.732 160.67 150.067C160.981 149.403 161.774 149.118 162.438 149.432L168.905 152.476C169.569 152.787 169.854 153.58 169.54 154.244C169.313 154.725 168.835 155.007 168.337 155.007V155.005Z" fill="#1D1E19"/>
<path d="M178.338 125.494C178.299 125.494 178.26 125.494 178.219 125.489L171.448 124.894C170.716 124.829 170.178 124.187 170.24 123.455C170.303 122.723 170.943 122.184 171.68 122.247L178.451 122.841C179.183 122.906 179.722 123.549 179.659 124.281C179.599 124.972 179.019 125.494 178.338 125.494Z" fill="#1D1E19"/>
<path d="M57.072 71.3712L55.1176 73.9395L73.0972 87.6213L75.0516 85.0531L57.072 71.3712Z" fill="#1D1E19"/>
<path d="M69.3857 62.5713L67.0595 60.332L59.8947 67.7697L62.2185 70.009L64.6825 67.4533L78.6303 80.889L80.8696 78.5652L66.9218 65.127L69.3857 62.5713Z" fill="#1D1E19"/>
<path d="M77.1882 52.1408L75.2219 53.6602C74.4054 54.2907 73.8087 55.0444 73.4367 55.9164C73.0647 56.7885 72.9029 57.7426 72.9536 58.7765C73.0043 59.8104 73.2652 60.895 73.7338 62.028C74.2025 63.1609 74.8837 64.3083 75.7774 65.4654L83.6717 75.6811L86.225 73.7075L83.2659 69.8763L86.5874 67.3109L89.5465 71.1421L92.0998 69.1685L78.2849 51.2881L77.1858 52.136L77.1882 52.1408ZM81.2923 67.3254L78.3332 63.4942C77.7414 62.7285 77.2703 61.9772 76.92 61.2429C76.5698 60.5085 76.3475 59.8225 76.2509 59.1896C76.1567 58.5567 76.1833 57.9842 76.333 57.4745C76.4828 56.9648 76.7703 56.5445 77.1954 56.216L77.7051 55.8222L84.6114 64.7624L81.2899 67.3278L81.2923 67.3254Z" fill="#1D1E19"/>
<path d="M75.5528 48.0196L72.8038 46.3093L68.6755 52.8436L71.3979 54.5732L75.5528 48.0196Z" fill="#1D1E19"/>
<path d="M94.9019 63.8613L85.4979 46.9326L82.6765 48.4979L93.6482 68.2505L100.984 64.1753L99.4167 61.3539L94.9019 63.8613Z" fill="#1D1E19"/>
<path d="M96.9803 41.3529L94.0103 42.6155L102.85 63.4103L105.82 62.1478L96.9803 41.3529Z" fill="#1D1E19"/>
<path d="M108.398 37.5285L107.777 37.7072C106.784 37.9947 105.956 38.4778 105.289 39.1518C104.622 39.8281 104.122 40.6543 103.791 41.635C103.46 42.6158 103.303 43.7197 103.323 44.9468C103.342 46.174 103.557 47.4905 103.963 48.894L107.56 61.2934L110.659 60.3948L109.311 55.7447L113.34 54.5755L114.688 59.2256L117.788 58.327L111.495 36.6274L108.396 37.5261L108.398 37.5285ZM108.413 52.6479L107.065 47.9978C106.794 47.0678 106.632 46.1957 106.577 45.3841C106.521 44.5724 106.565 43.8526 106.707 43.2293C106.85 42.6061 107.086 42.0843 107.412 41.664C107.739 41.2437 108.161 40.9587 108.678 40.8089L109.299 40.6301L112.447 51.4811L108.417 52.6503L108.413 52.6479Z" fill="#1D1E19"/>
<path d="M135.692 39.4249C135.231 38.3499 134.605 37.4368 133.808 36.6831C133.013 35.9294 132.066 35.3545 130.967 34.9535C129.868 34.5525 128.653 34.3714 127.32 34.4076L126.03 34.4438L126.65 57.0299L129.878 56.9405L129.74 51.933C130.332 51.8098 130.892 51.6334 131.421 51.4088C132.496 50.9498 133.409 50.3217 134.163 49.5246C134.917 48.7298 135.492 47.7829 135.893 46.6838C136.294 45.5871 136.475 44.3696 136.439 43.0362C136.402 41.7028 136.154 40.4998 135.695 39.4249H135.692ZM132.871 45.4446C132.622 46.1524 132.255 46.7587 131.774 47.266C131.293 47.7757 130.706 48.1718 130.015 48.4617C129.897 48.5124 129.771 48.5511 129.648 48.5946L129.354 37.8644C129.479 37.8982 129.607 37.932 129.728 37.9755C130.433 38.2267 131.042 38.5915 131.549 39.0722C132.057 39.5529 132.455 40.1399 132.745 40.8307C133.033 41.5216 133.19 42.2874 133.211 43.1256C133.235 43.9638 133.122 44.7368 132.871 45.4446Z" fill="#1D1E19"/>
<path d="M140.008 34.4759L138.141 56.9944L141.357 57.2611L143.225 34.7426L140.008 34.4759Z" fill="#1D1E19"/>
<path d="M158.423 37.3183L155.259 36.6855L149.024 35.4414L148.391 38.6059L153.42 39.6108L142.383 57.1555L144.094 57.4985L152.512 59.1773L153.145 56.0129L147.389 54.863L158.423 37.3183Z" fill="#1D1E19"/>
<path d="M172.755 42.3356L169.728 41.2148L163.764 39.0117L162.646 42.0385L167.455 43.8164L153.812 59.4213L155.447 60.0252L163.501 63.0013L164.619 59.9745L159.114 57.9406L172.755 42.3356Z" fill="#1D1E19"/>
<path d="M186.316 41.2415L178.673 40.0747L178.181 43.2633L185.848 44.4446L186.316 41.2415Z" fill="#1D1E19"/>
<path d="M171.675 59.5735L176.205 62.0544L177.755 59.2233L173.226 56.7424L176.171 51.3628C176.398 50.9473 176.63 50.5777 176.869 50.254C177.108 49.9303 177.34 49.6646 177.562 49.4569C177.787 49.2491 177.987 49.1066 178.164 49.0317C178.34 48.9568 178.475 48.9448 178.57 48.9955L182.251 51.0101L183.802 48.179L180.12 46.1644C179.611 45.8842 179.06 45.761 178.466 45.7924C177.871 45.8238 177.267 45.9953 176.654 46.3093C176.04 46.6234 175.451 47.0727 174.883 47.6597C174.318 48.2442 173.801 48.9617 173.337 49.812L165.586 63.9675L168.417 65.5184L172.946 67.9992L174.497 65.1681L169.967 62.6873L171.673 59.5735H171.675Z" fill="#1D1E19"/>
<path d="M184.241 67.8397C184.519 67.8301 184.795 67.8059 185.068 67.7673C186.152 67.6151 187.193 67.2334 188.191 66.6222C189.189 66.0135 190.087 65.1753 190.889 64.1076C191.691 63.0423 192.247 61.9456 192.556 60.8175C192.865 59.6894 192.942 58.5855 192.79 57.4984C192.638 56.4138 192.254 55.3727 191.645 54.375C191.037 53.3774 190.198 52.4788 189.131 51.6768L188.099 50.9014L174.516 68.9582L177.096 70.8979L180.106 66.8952C180.446 67.0667 180.789 67.2117 181.137 67.3349C181.224 67.661 181.277 67.9967 181.299 68.3422C181.34 69.0596 181.256 69.8229 181.048 70.637C180.84 71.4511 180.512 72.2796 180.062 73.1275L182.642 75.0673C183.444 73.4633 183.952 71.9125 184.162 70.4148C184.292 69.492 184.316 68.632 184.239 67.8349L184.241 67.8397ZM189.375 60.0832C189.169 60.803 188.814 61.4987 188.309 62.1703C187.804 62.8418 187.234 63.3757 186.599 63.7718C185.964 64.168 185.299 64.4168 184.606 64.5134C183.913 64.6124 183.205 64.5569 182.485 64.3516C182.36 64.3153 182.236 64.2743 182.113 64.2284L188.568 55.6457C188.645 55.7519 188.722 55.8558 188.792 55.9669C189.189 56.6022 189.437 57.2665 189.534 57.9598C189.631 58.6531 189.578 59.3585 189.372 60.0807L189.375 60.0832Z" fill="#1D1E19"/>
<path d="M199.02 59.6397L183.518 76.0789L185.866 78.293L201.368 61.8538L199.02 59.6397Z" fill="#1D1E19"/>
<path d="M209.453 70.7652L209.04 70.27C208.378 69.4777 207.603 68.9124 206.716 68.5742C205.83 68.2361 204.871 68.1129 203.839 68.2022C202.808 68.294 201.735 68.596 200.619 69.1057C199.503 69.6178 198.385 70.3425 197.264 71.2822L187.36 79.5653L189.43 82.0413L193.145 78.9349L195.836 82.1549L192.124 85.2614L194.194 87.7374L211.526 73.2412L209.456 70.7652H209.453ZM195.619 76.8647L199.332 73.7582C200.076 73.1374 200.805 72.6373 201.528 72.2581C202.247 71.8788 202.924 71.63 203.554 71.5116C204.182 71.3909 204.755 71.3981 205.272 71.5261C205.786 71.6566 206.219 71.9271 206.562 72.3402L206.975 72.8354L198.308 80.0823L195.617 76.8622L195.619 76.8647Z" fill="#1D1E19"/>
<path d="M81.2198 205.26L83.191 202.736L79.1521 199.581L82.8987 194.783C83.1886 194.414 83.4736 194.088 83.7611 193.81C84.0461 193.532 84.3167 193.307 84.5679 193.141C84.8215 192.972 85.039 192.865 85.225 192.819C85.4085 192.774 85.5438 192.783 85.6284 192.851L88.9112 195.414L90.8823 192.889L87.5995 190.327C87.1454 189.971 86.6236 189.761 86.039 189.696C85.452 189.631 84.8336 189.703 84.1838 189.913C83.5316 190.124 82.8818 190.469 82.2344 190.952C81.587 191.435 80.9662 192.056 80.3744 192.812L76.6277 197.61L74.6566 200.134L72.4874 202.912L70.5162 205.436L73.0405 207.407L77.0795 210.562L79.0506 208.038L75.0117 204.883L77.1809 202.105L81.2198 205.26Z" fill="#1D1E19"/>
<path d="M94.4526 186.495L87.1575 184.13L86.1622 187.174L93.484 189.558L94.4526 186.495Z" fill="#1D1E19"/>
<path d="M97.4577 196.897C97.2813 196.733 97.1002 196.576 96.9142 196.431C96.7282 196.283 96.5615 196.167 96.4141 196.08C95.7885 195.713 95.1169 195.486 94.3995 195.399C93.6821 195.312 92.9791 195.351 92.2882 195.515C91.5974 195.679 90.9548 195.964 90.3582 196.37C89.7615 196.776 89.2784 197.291 88.9112 197.916C88.4136 198.764 88.1213 199.6 88.0319 200.426C87.9425 201.252 87.9546 202.066 88.0706 202.861C88.1841 203.658 88.3629 204.438 88.6092 205.202C88.8532 205.965 89.0586 206.704 89.2204 207.417C89.3822 208.132 89.462 208.828 89.4595 209.506C89.4571 210.185 89.2711 210.84 88.904 211.465C88.73 211.76 88.5054 212.007 88.23 212.202C87.9522 212.398 87.6599 212.531 87.3483 212.596C87.0367 212.661 86.7202 212.673 86.3989 212.632C86.0753 212.591 85.7757 212.49 85.5003 212.328C85.3167 212.219 85.1042 212.065 84.865 211.862C84.6259 211.659 84.3988 211.434 84.1862 211.185C83.9737 210.936 83.7828 210.671 83.6161 210.386C83.4495 210.101 83.3408 209.811 83.2949 209.511L81.6571 212.301C81.732 212.765 81.9856 213.268 82.4252 213.811C82.8625 214.352 83.3842 214.801 83.993 215.159C84.638 215.538 85.3337 215.753 86.0825 215.809C86.8313 215.864 87.5633 215.787 88.2807 215.577C88.9982 215.367 89.6625 215.038 90.2712 214.591C90.8799 214.144 91.3631 213.615 91.7206 213.009C92.1964 212.2 92.4742 211.386 92.5588 210.567C92.6433 209.75 92.624 208.946 92.5056 208.158C92.3849 207.371 92.2037 206.596 91.9573 205.832C91.7109 205.069 91.5056 204.335 91.3365 203.629C91.1674 202.924 91.078 202.245 91.0635 201.593C91.049 200.941 91.206 200.339 91.5297 199.786C91.7133 199.472 91.9331 199.213 92.1916 199.006C92.4501 198.798 92.7158 198.651 92.9888 198.564C93.2617 198.477 93.5444 198.45 93.8342 198.484C94.1241 198.518 94.4067 198.614 94.6821 198.779C94.9768 198.95 95.3368 199.213 95.7643 199.561C96.1895 199.912 96.4455 200.308 96.5301 200.755L98.1993 197.909C98.1606 197.764 98.0712 197.6 97.9311 197.416C97.791 197.235 97.6316 197.061 97.4553 196.897H97.4577Z" fill="#1D1E19"/>
<path d="M116.336 199.909L116.167 196.701L108.504 197.049L108.642 200.247L116.336 199.909Z" fill="#1D1E19"/>
<path d="M109.415 202.656C108.843 202.801 108.289 203.086 107.753 203.511C107.217 203.936 106.729 204.489 106.294 205.168C105.857 205.849 105.494 206.646 105.207 207.562L103.386 213.369L103.359 213.456L100.414 222.843L103.47 223.802L108.359 225.336L109.318 222.28L104.429 220.746L105.485 217.384L110.374 218.918L111.333 215.862L106.444 214.328L108.265 208.521C108.405 208.074 108.56 207.668 108.729 207.308C108.898 206.948 109.072 206.644 109.251 206.397C109.43 206.151 109.596 205.975 109.753 205.866C109.91 205.76 110.038 205.721 110.142 205.753L114.116 206.999L115.075 203.943L111.101 202.697C110.55 202.525 109.99 202.511 109.42 202.656H109.415Z" fill="#1D1E19"/>
<path d="M115.901 207.497L119.379 208.057L116.312 227.029L119.474 227.542L122.542 208.569L126.02 209.132L126.53 205.97L116.411 204.335L115.901 207.497Z" fill="#1D1E19"/>
<path d="M127.824 209.231L131.349 209.289L131.037 228.505L134.24 228.556L134.552 209.34L138.074 209.398L138.127 206.195L127.878 206.028L127.824 209.231Z" fill="#1D1E19"/>
<path d="M143.743 224.785L143.328 221.288L148.418 220.684L148.038 217.502L142.949 218.106L142.231 212.062C142.176 211.596 142.152 211.164 142.159 210.765C142.166 210.367 142.2 210.019 142.26 209.722C142.321 209.424 142.403 209.195 142.502 209.031C142.601 208.869 142.702 208.782 142.809 208.767L146.944 208.275L146.565 205.093L142.429 205.584C141.857 205.651 141.34 205.869 140.879 206.236C140.417 206.603 140.028 207.091 139.714 207.697C139.4 208.304 139.18 209.009 139.062 209.806C138.941 210.606 138.939 211.483 139.052 212.437L140.944 228.341L149.215 227.358L148.838 224.177L143.748 224.781L143.743 224.785Z" fill="#1D1E19"/>
<path d="M158.761 218.299C158.926 218.077 159.075 217.85 159.213 217.613C159.761 216.674 160.104 215.63 160.245 214.478C160.385 213.326 160.286 212.111 159.95 210.83C159.614 209.55 159.102 208.444 158.416 207.509C157.728 206.574 156.916 205.832 155.976 205.284C155.036 204.736 153.993 204.393 152.841 204.253C151.688 204.112 150.473 204.211 149.193 204.547L147.954 204.873L153.65 226.561L156.749 225.747L155.486 220.94C155.829 220.78 156.155 220.601 156.464 220.408C156.771 220.541 157.066 220.705 157.348 220.903C157.93 221.314 158.474 221.85 158.979 222.512C159.484 223.174 159.928 223.942 160.312 224.812L163.411 223.998C162.658 222.387 161.762 221.036 160.725 219.952C160.088 219.283 159.433 218.734 158.766 218.302L158.761 218.299ZM152.324 207.451C153.063 207.533 153.732 207.748 154.331 208.098C154.93 208.448 155.447 208.927 155.882 209.528C156.317 210.132 156.64 210.835 156.851 211.642C157.063 212.446 157.126 213.219 157.044 213.959C156.962 214.698 156.747 215.367 156.396 215.966C156.046 216.565 155.57 217.082 154.966 217.517C154.863 217.592 154.751 217.659 154.64 217.727L151.932 207.419C152.063 207.424 152.193 207.434 152.321 207.446L152.324 207.451Z" fill="#1D1E19"/>
<path d="M168.774 218.483L167.414 215.232L172.142 213.256L170.907 210.301L166.177 212.277L163.829 206.661C163.648 206.229 163.506 205.818 163.402 205.434C163.298 205.05 163.235 204.704 163.213 204.402C163.192 204.1 163.204 203.856 163.254 203.673C163.305 203.489 163.38 203.378 163.479 203.337L167.32 201.731L166.086 198.776L162.245 200.383C161.713 200.605 161.274 200.958 160.931 201.436C160.588 201.914 160.346 202.489 160.211 203.161C160.075 203.832 160.059 204.567 160.162 205.369C160.266 206.171 160.503 207.014 160.873 207.9L165.815 219.722L167.049 222.677L174.733 219.464L173.499 216.509L168.772 218.485L168.774 218.483Z" fill="#1D1E19"/>
<path d="M178.751 194.904C179.198 194.612 179.717 194.626 180.304 194.943C180.893 195.259 181.449 195.82 181.976 196.626L190.723 210.043L193.406 208.294L184.659 194.877C184.135 194.073 183.558 193.404 182.93 192.87C182.302 192.336 181.652 191.957 180.983 191.73C180.314 191.505 179.637 191.428 178.958 191.5C178.28 191.573 177.627 191.814 177.002 192.223C176.376 192.631 175.893 193.131 175.552 193.723C175.272 194.211 175.091 194.737 174.997 195.303C174.441 195.16 173.886 195.117 173.325 195.177C172.646 195.249 171.994 195.491 171.369 195.899C170.832 196.25 170.41 196.67 170.081 197.153L169.893 196.863L167.209 198.612L179.456 217.394L182.14 215.645L173.393 202.228C172.869 201.424 172.579 200.687 172.528 200.02C172.475 199.354 172.673 198.875 173.12 198.583C173.567 198.291 174.086 198.305 174.673 198.622C175.263 198.938 175.818 199.499 176.345 200.305L185.092 213.722L187.775 211.973L179.028 198.556C178.504 197.752 178.214 197.015 178.164 196.349C178.111 195.682 178.309 195.204 178.756 194.911L178.751 194.904Z" fill="#1D1E19"/>
<path d="M54.5079 136.103V127.67H60.5856V129.515H56.7979V130.965H60.274V132.81H56.7979V134.26H60.5687V136.105H54.5079V136.103Z" fill="#1D1E19"/>
<path d="M66.2671 130.305C66.2454 130.03 66.1439 129.818 65.9604 129.663C65.7768 129.508 65.5014 129.433 65.1318 129.433C64.8951 129.433 64.7018 129.462 64.552 129.518C64.4023 129.574 64.2912 129.651 64.2211 129.747C64.1486 129.844 64.1124 129.953 64.11 130.076C64.1052 130.177 64.1221 130.269 64.1655 130.349C64.209 130.429 64.2767 130.504 64.3685 130.566C64.4627 130.632 64.581 130.69 64.726 130.74C64.8709 130.793 65.0448 130.839 65.2453 130.88L65.9362 131.028C66.4024 131.127 66.801 131.257 67.1343 131.419C67.4677 131.581 67.7382 131.772 67.9508 131.989C68.1634 132.207 68.318 132.453 68.4195 132.724C68.5185 132.994 68.5716 133.291 68.5741 133.612C68.5716 134.166 68.4315 134.637 68.1586 135.021C67.8832 135.405 67.4919 135.697 66.9822 135.898C66.4725 136.098 65.8613 136.197 65.1487 136.197C64.4361 136.197 63.7766 136.088 63.2331 135.871C62.6872 135.654 62.2644 135.32 61.9649 134.869C61.6654 134.417 61.5132 133.84 61.5108 133.134H63.6848C63.6993 133.393 63.7621 133.61 63.8781 133.784C63.994 133.96 64.1559 134.093 64.366 134.183C64.5762 134.274 64.8274 134.318 65.1173 134.318C65.3613 134.318 65.5666 134.289 65.7309 134.226C65.8951 134.166 66.0207 134.081 66.1053 133.975C66.1898 133.869 66.2333 133.745 66.2381 133.608C66.2357 133.48 66.1947 133.366 66.1125 133.267C66.0304 133.17 65.9 133.081 65.714 133.004C65.5304 132.926 65.2816 132.852 64.9675 132.784L64.1269 132.603C63.3805 132.441 62.7911 132.17 62.3635 131.789C61.9335 131.409 61.7209 130.89 61.7233 130.231C61.7209 129.694 61.8635 129.226 62.1533 128.825C62.4432 128.424 62.8442 128.11 63.3587 127.883C63.8733 127.658 64.4651 127.544 65.1318 127.544C65.7985 127.544 66.4024 127.658 66.8976 127.885C67.3952 128.112 67.7769 128.433 68.0475 128.846C68.318 129.26 68.4533 129.743 68.4581 130.293H66.2671V130.305Z" fill="#1D1E19"/>
<path d="M69.2166 129.515V127.67H76.5456V129.515H74.0092V136.103H71.753V129.515H69.2166Z" fill="#1D1E19"/>
<path d="M78.2752 136.236C77.9563 136.236 77.6834 136.125 77.4587 135.9C77.2317 135.675 77.1205 135.405 77.1229 135.084C77.1205 134.77 77.2317 134.504 77.4587 134.282C77.6858 134.059 77.9563 133.948 78.2752 133.948C78.5772 133.948 78.8429 134.059 79.0772 134.282C79.3091 134.504 79.4275 134.772 79.4299 135.084C79.4275 135.299 79.3719 135.492 79.2632 135.666C79.1545 135.84 79.0144 135.98 78.8405 136.081C78.6665 136.185 78.4805 136.236 78.2752 136.236Z" fill="#1D1E19"/>
<path d="M189.305 136.004V134.357L192.45 131.755C192.657 131.581 192.836 131.419 192.986 131.267C193.136 131.115 193.252 130.958 193.331 130.796C193.411 130.634 193.452 130.456 193.452 130.257C193.452 130.04 193.406 129.857 193.314 129.702C193.223 129.547 193.095 129.429 192.933 129.347C192.771 129.262 192.585 129.221 192.372 129.221C192.16 129.221 191.974 129.265 191.814 129.349C191.653 129.434 191.529 129.559 191.442 129.724C191.355 129.888 191.31 130.088 191.31 130.325H189.135C189.135 129.733 189.268 129.221 189.534 128.794C189.8 128.366 190.177 128.035 190.662 127.806C191.148 127.576 191.718 127.46 192.37 127.46C193.022 127.46 193.631 127.569 194.126 127.784C194.621 127.999 195.005 128.303 195.276 128.692C195.547 129.081 195.682 129.54 195.682 130.064C195.682 130.388 195.614 130.709 195.481 131.03C195.346 131.349 195.104 131.704 194.757 132.091C194.409 132.477 193.914 132.939 193.271 133.475L192.481 134.135V134.183H195.776V136.012H189.305V136.004Z" fill="#1D1E19"/>
<path d="M200.47 136.236C199.704 136.233 199.042 136.055 198.484 135.704C197.926 135.354 197.498 134.847 197.196 134.185C196.894 133.523 196.745 132.731 196.747 131.806C196.749 130.878 196.902 130.091 197.201 129.443C197.501 128.796 197.931 128.303 198.486 127.965C199.042 127.627 199.704 127.458 200.47 127.458C201.235 127.458 201.897 127.627 202.455 127.965C203.013 128.303 203.441 128.798 203.743 129.446C204.045 130.093 204.194 130.88 204.192 131.806C204.192 132.736 204.042 133.533 203.738 134.195C203.436 134.857 203.006 135.361 202.45 135.712C201.895 136.062 201.233 136.236 200.467 136.236H200.47ZM200.47 134.373C200.866 134.373 201.189 134.168 201.443 133.753C201.697 133.34 201.822 132.69 201.82 131.803C201.82 131.223 201.762 130.75 201.646 130.383C201.53 130.016 201.371 129.743 201.168 129.566C200.965 129.39 200.73 129.301 200.467 129.301C200.071 129.301 199.75 129.501 199.498 129.902C199.247 130.303 199.122 130.936 199.117 131.806C199.114 132.395 199.17 132.881 199.286 133.262C199.402 133.642 199.561 133.924 199.767 134.105C199.972 134.286 200.206 134.376 200.47 134.376V134.373Z" fill="#1D1E19"/>
<path d="M208.936 136.236C208.171 136.233 207.509 136.055 206.951 135.704C206.393 135.354 205.965 134.847 205.663 134.185C205.361 133.523 205.211 132.731 205.214 131.806C205.216 130.878 205.368 130.091 205.668 129.443C205.968 128.796 206.397 128.303 206.953 127.965C207.509 127.627 208.171 127.458 208.936 127.458C209.702 127.458 210.364 127.627 210.922 127.965C211.48 128.303 211.908 128.798 212.209 129.446C212.511 130.093 212.661 130.88 212.659 131.806C212.659 132.736 212.509 133.533 212.205 134.195C211.903 134.857 211.473 135.361 210.917 135.712C210.362 136.062 209.7 136.236 208.934 136.236H208.936ZM208.936 134.373C209.332 134.373 209.656 134.168 209.91 133.753C210.163 133.34 210.289 132.69 210.287 131.803C210.287 131.223 210.229 130.75 210.113 130.383C209.997 130.016 209.837 129.743 209.634 129.566C209.432 129.39 209.197 129.301 208.934 129.301C208.538 129.301 208.216 129.501 207.965 129.902C207.714 130.303 207.588 130.936 207.584 131.806C207.581 132.395 207.637 132.881 207.753 133.262C207.869 133.642 208.028 133.924 208.233 134.105C208.439 134.286 208.673 134.376 208.936 134.376V134.373Z" fill="#1D1E19"/>
<path d="M217.171 136.12C216.49 136.12 215.884 136.014 215.35 135.804C214.816 135.593 214.396 135.306 214.089 134.944C213.782 134.581 213.63 134.173 213.63 133.716C213.63 133.369 213.717 133.05 213.891 132.762C214.065 132.475 214.301 132.236 214.596 132.045C214.893 131.854 215.224 131.731 215.589 131.675V131.61C215.108 131.528 214.714 131.315 214.405 130.97C214.096 130.624 213.941 130.219 213.941 129.75C213.941 129.308 214.082 128.914 214.362 128.571C214.642 128.226 215.024 127.955 215.509 127.757C215.995 127.559 216.548 127.46 217.169 127.46C217.79 127.46 218.343 127.559 218.828 127.759C219.314 127.958 219.698 128.231 219.978 128.576C220.258 128.921 220.398 129.313 220.398 129.752C220.398 130.223 220.241 130.632 219.93 130.975C219.618 131.318 219.224 131.53 218.751 131.612V131.678C219.113 131.733 219.442 131.856 219.739 132.047C220.036 132.238 220.273 132.477 220.447 132.765C220.623 133.052 220.71 133.371 220.71 133.719C220.71 134.175 220.558 134.584 220.251 134.946C219.944 135.308 219.524 135.596 218.99 135.806C218.456 136.016 217.85 136.122 217.169 136.122L217.171 136.12ZM217.171 134.54C217.389 134.54 217.579 134.497 217.749 134.41C217.918 134.323 218.048 134.2 218.147 134.045C218.244 133.89 218.292 133.714 218.292 133.521C218.292 133.328 218.244 133.154 218.147 133.001C218.05 132.852 217.918 132.731 217.749 132.646C217.579 132.562 217.389 132.516 217.171 132.516C216.954 132.516 216.765 132.559 216.596 132.646C216.427 132.733 216.294 132.852 216.198 133.001C216.101 133.154 216.05 133.325 216.05 133.521C216.05 133.716 216.099 133.89 216.198 134.043C216.294 134.197 216.427 134.318 216.596 134.407C216.765 134.497 216.956 134.54 217.171 134.54ZM217.171 130.934C217.362 130.934 217.534 130.895 217.681 130.815C217.828 130.736 217.947 130.627 218.031 130.487C218.116 130.347 218.159 130.19 218.159 130.013C218.159 129.837 218.116 129.682 218.031 129.547C217.947 129.412 217.828 129.303 217.681 129.226C217.534 129.148 217.362 129.107 217.171 129.107C216.98 129.107 216.811 129.146 216.661 129.226C216.512 129.303 216.393 129.412 216.309 129.547C216.224 129.682 216.181 129.839 216.181 130.013C216.181 130.187 216.224 130.347 216.309 130.484C216.393 130.622 216.512 130.733 216.661 130.813C216.811 130.895 216.98 130.934 217.171 130.934Z" fill="#1D1E19"/>
<path d="M133.501 245.782C70.4872 245.782 19.2204 194.515 19.2204 131.501C19.2204 68.4873 70.4848 17.2205 133.501 17.2205C196.518 17.2205 247.782 68.4873 247.782 131.501C247.782 194.515 196.515 245.782 133.501 245.782ZM133.501 20.9067C72.5188 20.9067 22.9067 70.5188 22.9067 131.501C22.9067 192.484 72.5188 242.096 133.501 242.096C194.484 242.096 244.096 192.484 244.096 131.501C244.096 70.5188 194.484 20.9067 133.501 20.9067Z" fill="white"/>
<path d="M133.501 249.591C68.3856 249.591 15.411 196.614 15.411 131.501C15.411 66.388 68.3856 13.4109 133.501 13.4109C198.617 13.4109 251.591 66.3855 251.591 131.501C251.591 196.617 198.614 249.591 133.501 249.591ZM133.501 17.2203C70.4848 17.2203 19.2204 68.4847 19.2204 131.501C19.2204 194.517 70.4872 245.782 133.501 245.782C196.515 245.782 247.782 194.515 247.782 131.501C247.782 68.4871 196.515 17.2203 133.501 17.2203Z" fill="#019146"/>
<path d="M215.787 79.5364L213.301 81.481C222.425 95.9844 227.708 113.138 227.708 131.501C227.708 158.38 216.393 182.664 198.276 199.844L199.95 202.579C218.952 184.802 230.846 159.515 230.846 131.504C230.846 112.411 225.319 94.5857 215.785 79.5388L215.787 79.5364Z" fill="#1D1E19"/>
<path d="M50.9231 79.9954C41.565 94.9432 36.1516 112.601 36.1516 131.501C36.1516 157.853 46.6764 181.792 63.7452 199.339L65.7671 196.914C49.3868 179.956 39.2943 156.887 39.2943 131.504C39.2943 113.292 44.4903 96.2718 53.474 81.8457L50.9255 79.9978L50.9231 79.9954Z" fill="#1D1E19"/>
<path d="M133.501 242.096C72.5188 242.096 22.9067 192.481 22.9067 131.501C22.9067 70.5212 72.5188 20.9067 133.501 20.9067C194.484 20.9067 244.096 70.5188 244.096 131.501C244.096 192.484 194.481 242.096 133.501 242.096ZM133.501 24.4722C74.4875 24.4722 26.4746 72.4851 26.4746 131.499C26.4746 190.513 74.4875 238.525 133.501 238.525C192.515 238.525 240.528 190.513 240.528 131.499C240.528 72.4851 192.515 24.4722 133.501 24.4722Z" fill="#B84C37"/>
</g>
<defs>
<filter id="filter0_d_31_787" x="0" y="0" width="267.002" height="267.002" filterUnits="userSpaceOnUse" color-interpolation-filters="sRGB">
<feFlood flood-opacity="0" result="BackgroundImageFix"/>
<feColorMatrix in="SourceAlpha" type="matrix" values="0 0 0 0 0 0 0 0 0 0 0 0 0 0 0 0 0 0 127 0" result="hardAlpha"/>
<feOffset dy="2"/>
<feGaussianBlur stdDeviation="5"/>
<feComposite in2="hardAlpha" operator="out"/>
<feColorMatrix type="matrix" values="0 0 0 0 0 0 0 0 0 0 0 0 0 0 0 0 0 0 0.6 0"/>
<feBlend mode="normal" in2="BackgroundImageFix" result="effect1_dropShadow_31_787"/>
<feBlend mode="normal" in="SourceGraphic" in2="effect1_dropShadow_31_787" result="shape"/>
</filter>
</defs>
</svg>
