<svg width="180" height="125" viewBox="0 0 180 125" fill="none" xmlns="http://www.w3.org/2000/svg">
<path d="M180 90C180 102.222 177.564 113.875 173.15 124.5C132.5 124.5 127.484 124.5 90 124.5C52.5164 124.5 53.5 124.5 6.84962 124.5C2.43625 113.875 0 102.222 0 90C0 40.2944 40.2944 0 90 0C139.706 0 180 40.2944 180 90Z" fill="white"/>
<g clip-path="url(#clip0_180_48)">
<path d="M64.352 63.5128C64.0945 62.611 63.8485 61.7254 63.5814 60.8455C63.5498 60.7431 63.4196 60.6502 63.3143 60.5927C60.7994 59.2074 59.6123 56.093 60.113 53.2715C60.7467 49.6994 63.5594 47.1939 67.1819 46.9086C70.6867 46.6319 81.0105 45.8363 84.5134 46.0307C91.5162 46.4194 98.4224 47.4428 105.185 49.3481C108.178 50.1915 111.1 51.2284 113.979 52.3993C114.356 52.5525 114.782 52.586 115.181 52.6903C118.064 53.4381 120.467 56.1341 120.891 59.1212C121.391 62.6445 120.172 65.4698 117.366 67.621C117.048 67.8652 116.914 68.0892 116.986 68.4904C117.2 69.6833 116.864 70.768 116.241 71.7714C115.03 73.7206 113.812 75.6661 112.58 77.602C112.315 78.0184 112.18 78.4311 112.185 78.9356C112.21 81.7274 112.179 84.5192 112.215 87.311C112.234 88.7748 111.752 89.9611 110.453 90.6743C109.108 91.4134 107.757 91.2966 106.477 90.4378C106.439 90.412 106.397 90.3928 106.316 90.3488C106.006 90.8103 105.693 91.265 105.394 91.7284C102.935 95.5284 100.482 99.3312 98.0155 103.127C97.7877 103.478 97.6929 103.827 97.6967 104.243C97.713 106.285 97.6891 108.327 97.7149 110.369C97.735 111.922 97.0946 113.096 95.7419 113.82C94.4208 114.528 93.1293 114.351 91.9317 113.462C91.8676 113.415 91.7996 113.373 91.6838 113.296C91.5421 113.517 91.41 113.745 91.2568 113.958C90.6077 114.864 90.0084 115.812 89.2895 116.659C87.6745 118.564 85.5932 119.36 83.1319 118.853C80.7779 118.367 79.3792 116.751 78.6899 114.549C77.9193 112.089 77.2673 109.59 76.5848 107.102C75.3469 102.588 74.1244 98.0683 72.8943 93.5523C72.8541 93.4029 72.788 93.2612 72.7277 93.0985C71.688 93.4441 70.701 93.4728 69.7523 92.9127C68.6619 92.2694 68.1603 91.3024 68.1584 90.0558C68.1536 87.0563 68.144 84.0577 68.1555 81.0582C68.1574 80.6915 68.0272 80.4885 67.7343 80.2856C64.6967 78.1841 63.2243 75.2831 63.4608 71.5895C63.5488 70.2127 63.0683 69.2343 61.885 68.5842C61.4504 68.3458 61.2532 67.9456 61.2742 67.5215C61.3202 66.6062 61.4159 65.6871 61.5806 64.7862C61.705 64.1074 62.243 63.7378 62.8969 63.6239C63.4049 63.5358 63.889 63.4994 64.3492 63.5147L64.352 63.5128ZM72.4022 82.2367C72.4281 82.3373 72.474 82.5211 72.5247 82.7039C73.3586 85.7456 74.1972 88.7873 75.0272 91.8299C75.7777 94.5815 76.5158 97.3359 77.275 100.086C77.3171 100.239 77.4847 100.43 77.6302 100.47C78.2256 100.636 78.8536 100.695 79.4367 100.894C81.9123 101.734 83.4948 104.213 83.2861 106.813C83.1329 108.714 82.2502 110.189 80.7664 111.346C80.6314 111.451 80.4658 111.673 80.4935 111.801C80.6123 112.342 80.7482 112.892 80.9732 113.394C81.3302 114.194 82.166 114.529 83.0084 114.308C83.9619 114.058 84.5392 113.35 85.0485 112.594C86.25 110.809 87.416 109.001 88.6069 107.209C88.7649 106.97 88.74 106.823 88.5696 106.589C87.1881 104.695 86.989 102.637 87.9722 100.541C89.0396 98.2656 91.4712 97.0497 94.1269 97.3369C94.4715 97.3742 94.6601 97.2995 94.8516 96.9999C97.7436 92.4733 100.649 87.9563 103.55 83.4354C103.63 83.31 103.688 83.1692 103.804 82.9414C103.586 83.0209 103.471 83.0572 103.36 83.1051C101.181 84.0472 98.9173 84.3526 96.5824 83.9189C92.6229 83.1836 89.8524 80.9691 88.3695 77.1922C87.8755 75.9332 87.8659 74.6091 87.796 73.2879C87.7491 72.3918 87.102 71.7561 86.2117 71.6555C85.1289 71.533 84.3056 72.2644 84.14 73.4957C83.5819 77.6489 80.3806 81.1271 76.2765 81.9083C75.0234 82.1467 73.7214 82.1324 72.4022 82.2367ZM110.271 53.8747C110.145 53.8191 110.062 53.778 109.974 53.7444C107.294 52.7172 104.536 51.9474 101.748 51.2744C96.8418 50.09 91.8599 49.4026 86.8378 48.9699C82.5087 48.5975 71.6459 49.0924 66.8794 49.5644C63.747 49.7818 61.8103 52.3581 62.3474 55.4563C62.6317 57.0944 63.8657 58.5631 65.9795 58.4664C68.1402 58.3677 77.2721 58.2624 79.4357 58.3084C83.2009 58.3869 86.9431 58.2328 90.6613 58.8378C95.8615 59.6842 100.97 60.8828 105.906 62.7565C106.168 62.856 106.434 62.9432 106.711 63.0399C106.7 58.1849 107.241 56.7861 110.27 53.8737L110.271 53.8747ZM106.405 73.781C106.405 72.9825 106.484 72.3496 106.39 71.7446C106.096 69.847 104.915 68.6225 103.227 67.8403C102.009 67.2754 100.697 67.1031 99.3749 67.0207C97.4584 66.9011 95.5437 66.8963 93.7142 67.5914C92.1308 68.1926 90.9131 69.2821 90.6154 70.9566C90.3713 72.3286 90.3349 73.8059 90.5579 75.1797C90.9811 77.7848 92.5683 79.6652 94.9415 80.7844C97.7312 82.0998 100.533 82.0108 103.132 80.3066C105.507 78.7508 106.581 76.4559 106.404 73.7819L106.405 73.781ZM66.0235 71.4191C66.0235 71.6421 66.0283 71.8652 66.0235 72.0883C65.9546 74.7795 67.1599 76.8064 69.3244 78.2961C70.9892 79.4421 72.8713 79.7035 74.8511 79.5417C77.8532 79.2966 80.8382 76.8092 81.4423 73.8556C81.6653 72.7623 81.5839 71.6067 81.6328 70.4789C81.6768 69.4631 81.3417 68.5679 80.7252 67.7733C79.9373 66.7584 78.9771 65.9609 77.7489 65.5358C75.0502 64.6023 72.2892 64.5928 69.5522 65.2227C67.7362 65.6411 66.5539 66.8944 66.1863 68.7546C66.0149 69.621 66.0111 71.4181 66.0245 71.4191H66.0235ZM107.538 66.5162C107.549 66.475 107.559 66.4348 107.571 66.3936C107.352 66.2721 107.141 66.1351 106.915 66.0317C103.496 64.4721 99.9072 63.4305 96.2684 62.5449C96.1411 62.5143 95.9314 62.5928 95.8357 62.6933C94.1221 64.4932 92.0542 65.0418 89.6849 64.3898C87.9703 63.9178 86.8933 62.6741 86.0987 61.1595C85.9465 60.8685 85.7761 60.7459 85.4515 60.7143C81.8769 60.363 71.1586 60.5487 67.5715 60.6176C67.0823 60.6272 66.5931 60.6186 66.0197 60.6186C66.2227 61.3347 66.4141 61.9685 66.5797 62.61C66.6525 62.8905 66.7741 63.0111 67.0881 63.0389C70.1314 63.3032 80.2111 63.7694 82.9156 65.2055C84.3659 65.9762 85.8488 66.2711 87.4543 66.2816C88.3436 66.2874 89.188 66.184 90.0324 65.9111C92.2974 65.1777 94.6457 64.9863 97.0075 64.9164C99.7205 64.836 102.368 65.3127 104.999 65.8987C105.849 66.0882 106.692 66.3094 107.538 66.5152V66.5162ZM118.634 60.6598C118.588 58.5181 118.014 57.0015 116.626 55.8584C115.348 54.8053 113.686 54.6856 112.256 55.53C109.761 57.0034 108.429 60.5554 109.332 63.328C110.367 66.5057 113.811 67.5205 116.336 65.374C117.899 64.0451 118.61 62.3122 118.634 60.6607V60.6598ZM105.117 85.7246C104.912 86.0089 104.757 86.2071 104.621 86.4177C104.225 87.0333 103.839 87.6556 103.444 88.2722C99.419 94.547 95.3082 100.764 91.0184 106.863C90.894 107.039 90.8537 107.275 90.7743 107.483C91.0069 107.548 91.2376 107.625 91.4741 107.669C91.5765 107.688 91.6943 107.647 91.8015 107.62C92.599 107.425 92.9216 107.67 92.9302 108.501C92.9388 109.235 92.9187 109.969 92.9398 110.702C92.9541 111.223 93.272 111.555 93.7382 111.731C94.1987 111.906 94.6658 111.825 94.9521 111.438C95.1627 111.153 95.3178 110.754 95.3235 110.402C95.358 108.281 95.3695 106.158 95.3302 104.038C95.3159 103.245 95.5437 102.591 95.9649 101.939C98.8072 97.536 101.606 93.1042 104.478 88.7222C105.083 87.8012 105.271 86.8878 105.117 85.7246ZM114.796 68.947C113.768 68.8369 113.773 68.8389 113.458 69.5751C113.359 69.8087 113.237 70.0337 113.109 70.2529C112.689 70.9662 112.236 71.6603 111.851 72.3918C111.667 72.7422 111.443 72.9605 111.081 73.1108C110.002 73.5598 109.208 74.3468 108.975 75.4861C108.472 77.9552 107.372 80.0653 105.552 81.8069C105.384 81.9668 105.243 82.1774 105.153 82.3909C104.953 82.8667 105.18 83.219 105.699 83.2391C105.948 83.2487 106.205 83.1961 106.449 83.1348C106.948 83.0103 107.333 83.2008 107.47 83.6996C107.528 83.9112 107.544 84.1401 107.545 84.3612C107.55 85.3818 107.533 86.4024 107.545 87.422C107.548 87.669 107.577 87.9409 107.684 88.1573C107.927 88.6532 108.465 88.8687 108.969 88.7308C109.538 88.5757 109.852 88.1343 109.854 87.4718C109.859 84.5699 109.89 81.6671 109.847 78.7652C109.833 77.8107 110.073 77.0132 110.587 76.2166C111.866 74.2367 113.089 72.2204 114.308 70.2022C114.526 69.8422 114.618 69.4075 114.792 68.9442L114.796 68.947ZM82.5796 116.018C83.1923 116.499 83.9543 116.699 84.6589 116.63C86.2078 116.48 87.3068 115.62 88.1598 114.397C88.8424 113.418 89.4484 112.385 90.1568 111.426C90.602 110.823 90.444 110.221 90.3722 109.564C90.1626 109.674 89.9883 109.801 89.8715 109.969C89.0683 111.116 88.2814 112.273 87.482 113.422C86.3122 115.103 84.881 116.308 82.5815 116.017L82.5796 116.018ZM70.6177 85.2238C70.5957 85.2286 70.5728 85.2334 70.5507 85.2382C70.5507 86.7691 70.5421 88.3009 70.5546 89.8318C70.5603 90.5633 71.0744 90.9979 71.6842 90.8227C71.9657 90.7413 72.1428 90.569 72.0557 90.2598C71.5818 88.5795 71.0983 86.9022 70.6177 85.2238ZM108.331 70.9183C108.876 70.9164 109.311 70.498 109.322 69.9657C109.331 69.442 108.893 69.0169 108.336 69.0102C107.781 69.0045 107.358 69.4171 107.356 69.9648C107.355 70.5143 107.769 70.9202 108.33 70.9183H108.331ZM65.5468 66.4128C65.5564 65.9006 65.1179 65.4851 64.555 65.4717C64.0285 65.4592 63.5986 65.8642 63.5919 66.3764C63.5852 66.8618 64.0304 67.3128 64.5311 67.3281C65.0767 67.3453 65.5372 66.9307 65.5468 66.4118V66.4128Z" fill="#1D1E19"/>
<path d="M118.407 92.8295C118.421 93.9372 117.629 94.5174 116.768 94.1717C115.958 93.8472 115.156 93.4939 114.374 93.1081C113.896 92.8725 113.66 92.4417 113.718 91.8883C113.767 91.4077 114.116 90.9788 114.601 90.8821C114.82 90.839 115.083 90.8639 115.29 90.9462C116.102 91.2679 116.901 91.6241 117.704 91.9687C118.157 92.1641 118.398 92.5058 118.408 92.8285L118.407 92.8295Z" fill="#1D1E19"/>
<path d="M65.7641 92.1018C65.563 92.3861 65.4156 92.7442 65.1495 92.9414C64.5109 93.4134 63.8293 93.8318 63.141 94.2301C62.5953 94.546 62.041 94.3996 61.7117 93.9189C61.3833 93.4402 61.4054 92.7337 61.8706 92.4024C62.6327 91.8596 63.4311 91.3531 64.2601 90.9213C64.868 90.6054 65.6722 91.2842 65.765 92.1018H65.7641Z" fill="#1D1E19"/>
<path d="M69.0295 110.843C68.3278 110.835 67.6893 110.174 67.7075 109.473C67.7266 108.717 68.3527 108.089 69.0831 108.094C69.8557 108.1 70.4339 108.689 70.4349 109.47C70.4349 110.256 69.826 110.852 69.0295 110.843Z" fill="#1D1E19"/>
<path d="M106.357 109.504C106.353 110.268 105.753 110.854 104.983 110.846C104.227 110.837 103.631 110.192 103.648 109.4C103.664 108.698 104.271 108.107 104.98 108.102C105.753 108.097 106.361 108.717 106.357 109.504Z" fill="#1D1E19"/>
<path d="M108.34 102.04C107.596 102.043 107.026 101.482 107.029 100.751C107.032 100.042 107.64 99.4546 108.362 99.4652C109.054 99.4747 109.649 100.068 109.65 100.748C109.65 101.486 109.093 102.036 108.34 102.04Z" fill="#1D1E19"/>
<path d="M63.8016 100.724C63.791 100.052 64.3951 99.4565 65.0863 99.4594C65.7708 99.4623 66.3481 100.046 66.3576 100.746C66.3672 101.47 65.834 102.022 65.1141 102.035C64.3424 102.048 63.815 101.521 63.8016 100.723V100.724Z" fill="#1D1E19"/>
<path d="M63.0137 84.928C63.0204 85.4928 62.5953 85.9447 62.042 85.962C61.458 85.9792 60.9784 85.5139 60.964 84.9165C60.9506 84.3765 61.4456 83.8701 61.9951 83.8614C62.514 83.8528 63.007 84.3698 63.0137 84.9289V84.928Z" fill="#1D1E19"/>
<path d="M95.5332 87.4861C95.4633 91.377 92.2677 95.1262 88.3168 95.7811C84.3401 96.4398 81.0957 95.1655 78.823 91.8088C77.4923 89.8433 77.005 87.625 77.5354 85.2468C77.6158 84.8858 77.7872 84.7604 78.1586 84.7834C81.3063 84.973 84.4559 85.1395 87.6046 85.3282C89.7653 85.4574 91.924 85.6096 94.0847 85.7523C94.2283 85.7619 94.371 85.7714 94.5136 85.7858C95.2957 85.8662 95.5245 86.1218 95.5332 86.9232C95.5351 87.0831 95.5332 87.242 95.5332 87.4871V87.4861ZM91.5047 91.5628C91.3247 91.4 91.1955 91.2593 91.0442 91.1501C89.3727 89.9447 87.4964 89.5541 85.4803 89.8212C84.3382 89.9725 83.3109 90.4426 82.4388 91.2056C81.8051 91.76 81.8319 92.0032 82.5336 92.4694C83.7571 93.2823 85.1031 93.7322 86.5716 93.737C88.4997 93.7437 90.1233 93.019 91.5038 91.5647L91.5047 91.5628Z" fill="#1D1E19"/>
<path d="M84.6723 78.4243C85.4621 78.253 86.294 78.364 86.9813 78.7901C87.6859 79.2266 88.2249 79.9294 88.4058 80.7441C88.5322 81.3109 88.335 81.8614 87.908 82.1381C87.3939 82.4694 86.7918 82.2578 86.607 81.6728C86.5352 81.4469 86.5304 81.1903 86.4223 80.9873C86.1791 80.5325 85.7732 80.2922 85.2495 80.2989C84.7441 80.3066 84.3793 80.5383 84.1486 81.0017C83.8815 81.5359 83.4727 81.7417 83.0467 81.5933C82.5815 81.4306 82.299 80.9366 82.3823 80.4014C82.4886 79.7226 82.8773 79.197 83.4574 78.8982C83.8739 78.6838 84.1936 78.5277 84.6723 78.4234V78.4243Z" fill="#1D1E19"/>
<path d="M71.6813 55.2055C71.2046 55.1921 70.8475 54.9766 70.8149 54.5372C70.7824 54.0997 71.0361 53.7799 71.5186 53.6593C71.6411 53.6286 71.7675 53.597 71.8929 53.5942C73.4677 53.5578 75.0435 53.5204 76.6192 53.4965C77.1678 53.4879 77.5698 53.8316 77.5861 54.2787C77.6043 54.788 77.2003 55.1988 76.6422 55.2035C75.4331 55.2131 73.0158 55.2064 73.0158 55.2064C73.0158 55.2064 72.1265 55.2189 71.6813 55.2064V55.2055Z" fill="#1D1E19"/>
<path d="M97.8805 55.8297C98.1199 55.823 98.5554 55.9829 98.8637 56.0547C99.822 56.2777 100.783 56.4903 101.737 56.7306C102.475 56.9163 102.761 57.3089 102.604 57.8498C102.442 58.408 101.938 58.6387 101.265 58.475C100.155 58.205 99.0341 57.9762 97.9389 57.6564C97.6565 57.5741 97.3885 57.4611 97.1807 57.2217C97.1175 57.149 97.0706 57.0647 97.0371 56.9747C96.9624 56.7718 96.9174 56.5113 97.1003 56.2145C97.3329 55.8392 97.7072 55.8354 97.8786 55.8306L97.8805 55.8297Z" fill="#1D1E19"/>
<path d="M101.885 53.0426C102.109 52.9909 102.343 53.0034 102.566 53.058C102.822 53.1221 103.148 53.2025 103.472 53.2896C104.193 53.4821 104.918 53.6602 105.629 53.8851C106.168 54.0556 106.406 54.5027 106.261 54.9459C106.106 55.4208 105.711 55.62 105.15 55.4821C104.072 55.2159 102.993 54.9459 101.919 54.6635C101.417 54.5314 101.148 54.1523 101.215 53.73C101.27 53.3787 101.489 53.1345 101.886 53.0426H101.885Z" fill="#1D1E19"/>
<path d="M91.8235 73.1395C94.2953 73.2419 96.7499 73.3444 99.2964 73.4506C97.9408 71.8537 96.6523 70.3362 95.3637 68.8187L95.4278 68.6646C96.8543 68.6646 98.2855 68.6014 99.7071 68.6857C100.714 68.745 101.744 68.8944 102.702 69.1979C104.332 69.7158 105.173 71.0916 105.097 72.7987C105.07 73.4037 105.086 74.0117 105.024 74.6129C104.747 77.2898 102.998 79.4239 100.403 80.074C96.3191 81.0974 92.4687 78.612 91.8302 74.3784C91.7737 74.0059 91.8225 73.6172 91.8225 73.1385L91.8235 73.1395ZM96.8696 75.4985C96.8839 75.0198 96.4302 74.5679 95.918 74.5526C95.4173 74.5373 95.0018 74.9241 94.9712 75.4334C94.9415 75.9313 95.3742 76.3947 95.8835 76.4109C96.3823 76.4272 96.8543 75.9906 96.8696 75.4995V75.4985Z" fill="#1D1E19"/>
<path d="M70.8111 66.6071C72.8033 66.4645 74.6653 66.4434 76.5216 66.6942C78.397 66.948 80.0446 68.3199 80.3241 69.9858C81.0239 74.1467 78.6832 77.4104 75.0693 78.1438C72.1763 78.7317 69.0726 77.1721 67.8664 74.4894C67.3667 73.3779 67.494 72.2175 67.517 70.9633C69.8605 71.0686 72.1686 71.172 74.6021 71.2812C73.3078 69.6861 72.0911 68.1859 70.8111 66.6081V66.6071ZM70.6915 74.0768C71.1749 74.0921 71.6153 73.7149 71.644 73.2582C71.6727 72.8044 71.2304 72.3391 70.7489 72.318C70.2319 72.2951 69.8088 72.6656 69.7801 73.1672C69.7533 73.6431 70.1707 74.0595 70.6915 74.0758V74.0768Z" fill="#1D1E19"/>
<path d="M111.343 63.2438C110.932 62.4462 110.788 61.5348 110.936 60.6502C111.118 59.5568 111.498 58.6655 112.209 57.9149C112.974 57.1078 113.908 56.6511 115.043 56.946C116.166 57.238 116.787 58.047 117.089 59.1346C117.631 61.0858 116.655 63.4094 114.904 64.3275C113.56 65.0322 112.046 64.6061 111.352 63.261C111.349 63.2552 111.346 63.2495 111.343 63.2447V63.2438Z" fill="#1D1E19"/>
</g>
<path d="M23.0449 82V73.2727H29.3347V75.1818H25.4142V76.6818H29.0108V78.5909H25.4142V80.0909H29.3176V82H23.0449ZM35.2143 76C35.1916 75.7159 35.085 75.4943 34.8947 75.3352C34.7072 75.1761 34.4217 75.0966 34.0382 75.0966C33.7939 75.0966 33.5936 75.1264 33.4373 75.1861C33.2839 75.2429 33.1703 75.321 33.0964 75.4205C33.0225 75.5199 32.9842 75.6335 32.9814 75.7614C32.9757 75.8665 32.9941 75.9616 33.0368 76.0469C33.0822 76.1293 33.1532 76.2045 33.2498 76.2727C33.3464 76.3381 33.47 76.3977 33.6206 76.4517C33.7711 76.5057 33.9501 76.554 34.1575 76.5966L34.8734 76.75C35.3564 76.8523 35.7697 76.9872 36.1135 77.1548C36.4572 77.3224 36.7385 77.5199 36.9572 77.7472C37.176 77.9716 37.3365 78.2244 37.4387 78.5057C37.5439 78.7869 37.5978 79.0937 37.6007 79.4261C37.5978 80 37.4544 80.4858 37.1703 80.8835C36.8862 81.2812 36.4799 81.5838 35.9515 81.7912C35.426 81.9986 34.7939 82.1023 34.0552 82.1023C33.2967 82.1023 32.6348 81.9901 32.0694 81.7656C31.5069 81.5412 31.0694 81.196 30.7569 80.7301C30.4473 80.2614 30.291 79.6619 30.2882 78.9318H32.5382C32.5524 79.1989 32.6191 79.4233 32.7385 79.6051C32.8578 79.7869 33.0254 79.9247 33.2413 80.0185C33.46 80.1122 33.72 80.1591 34.0211 80.1591C34.274 80.1591 34.4856 80.1278 34.6561 80.0653C34.8265 80.0028 34.9558 79.9162 35.0439 79.8054C35.1319 79.6946 35.1774 79.5682 35.1802 79.4261C35.1774 79.2926 35.1333 79.1761 35.0481 79.0767C34.9657 78.9744 34.8294 78.8835 34.639 78.804C34.4487 78.7216 34.1916 78.6449 33.8677 78.5739L32.9984 78.3864C32.2257 78.2187 31.6163 77.9389 31.1703 77.5469C30.7271 77.152 30.5069 76.6136 30.5098 75.9318C30.5069 75.3778 30.6547 74.8935 30.9529 74.4787C31.2541 74.0611 31.6703 73.7358 32.2015 73.5028C32.7356 73.2699 33.3478 73.1534 34.0382 73.1534C34.7427 73.1534 35.3521 73.2713 35.8663 73.5071C36.3805 73.7429 36.7768 74.0753 37.0552 74.5043C37.3365 74.9304 37.4785 75.429 37.4814 76H35.2143ZM38.2633 75.1818V73.2727H45.8485V75.1818H43.2235V82H40.8883V75.1818H38.2633ZM47.6426 82.1364C47.313 82.1364 47.0304 82.0213 46.7946 81.7912C46.5616 81.5582 46.4466 81.2756 46.4494 80.9432C46.4466 80.6193 46.5616 80.3423 46.7946 80.1122C47.0304 79.8821 47.313 79.767 47.6426 79.767C47.9551 79.767 48.2306 79.8821 48.4693 80.1122C48.7108 80.3423 48.8329 80.6193 48.8358 80.9432C48.8329 81.1648 48.7747 81.3665 48.661 81.5483C48.5502 81.7273 48.4054 81.8707 48.2264 81.9787C48.0474 82.0838 47.8528 82.1364 47.6426 82.1364Z" fill="#1D1E19"/>
<path d="M127.64 82V80.2955L130.896 77.6023C131.112 77.4233 131.296 77.2557 131.45 77.0994C131.606 76.9403 131.725 76.777 131.808 76.6094C131.893 76.4418 131.936 76.2557 131.936 76.0511C131.936 75.8267 131.887 75.6349 131.791 75.4759C131.697 75.3168 131.566 75.1946 131.399 75.1094C131.231 75.0213 131.038 74.9773 130.819 74.9773C130.6 74.9773 130.407 75.0213 130.24 75.1094C130.075 75.1974 129.947 75.3267 129.856 75.4972C129.765 75.6676 129.72 75.875 129.72 76.1193H127.47C127.47 75.5057 127.607 74.9773 127.883 74.5341C128.159 74.0909 128.548 73.75 129.051 73.5114C129.553 73.2727 130.143 73.1534 130.819 73.1534C131.518 73.1534 132.123 73.2656 132.634 73.4901C133.149 73.7116 133.545 74.0241 133.823 74.4276C134.105 74.831 134.245 75.304 134.245 75.8466C134.245 76.1818 134.176 76.5156 134.036 76.848C133.897 77.1776 133.647 77.5426 133.286 77.9432C132.926 78.3438 132.413 78.821 131.748 79.375L130.93 80.0568V80.108H134.339V82H127.64ZM139.199 82.2386C138.406 82.2358 137.722 82.0526 137.145 81.6889C136.568 81.3253 136.124 80.8011 135.811 80.1165C135.499 79.4318 135.344 78.6108 135.347 77.6534C135.35 76.6932 135.506 75.8778 135.816 75.2074C136.128 74.5369 136.571 74.027 137.145 73.6776C137.722 73.3281 138.406 73.1534 139.199 73.1534C139.992 73.1534 140.676 73.3295 141.253 73.6818C141.83 74.0312 142.274 74.5412 142.587 75.2116C142.899 75.8821 143.054 76.696 143.051 77.6534C143.051 78.6165 142.895 79.4403 142.583 80.125C142.27 80.8097 141.825 81.3338 141.249 81.6974C140.675 82.0582 139.992 82.2386 139.199 82.2386ZM139.199 80.3125C139.608 80.3125 139.943 80.0994 140.205 79.6733C140.469 79.2443 140.6 78.571 140.597 77.6534C140.597 77.054 140.537 76.5639 140.418 76.1832C140.298 75.8026 140.134 75.5213 139.923 75.3395C139.713 75.1548 139.472 75.0625 139.199 75.0625C138.79 75.0625 138.456 75.2699 138.198 75.6847C137.939 76.0994 137.807 76.7557 137.801 77.6534C137.798 78.2642 137.857 78.767 137.976 79.1619C138.095 79.554 138.26 79.8438 138.47 80.0312C138.683 80.2188 138.926 80.3125 139.199 80.3125ZM148.442 73.2727V82H146.073V75.4545H146.021L144.112 76.5966V74.5852L146.26 73.2727H148.442ZM153.796 82.1193C153.092 82.1193 152.463 82.0099 151.909 81.7912C151.357 81.5724 150.923 81.2756 150.605 80.9006C150.289 80.5256 150.132 80.1023 150.132 79.6307C150.132 79.2699 150.221 78.9403 150.4 78.642C150.582 78.3437 150.826 78.0966 151.133 77.9006C151.44 77.7017 151.782 77.5739 152.16 77.517V77.4489C151.663 77.3636 151.254 77.1435 150.933 76.7884C150.615 76.4304 150.455 76.0085 150.455 75.5227C150.455 75.0653 150.6 74.6591 150.89 74.304C151.18 73.946 151.576 73.6648 152.079 73.4602C152.582 73.2557 153.154 73.1534 153.796 73.1534C154.438 73.1534 155.011 73.2571 155.514 73.4645C156.017 73.669 156.413 73.9503 156.703 74.3082C156.992 74.6634 157.137 75.0682 157.137 75.5227C157.137 76.0114 156.975 76.4332 156.651 76.7884C156.328 77.1435 155.921 77.3636 155.433 77.4489V77.517C155.808 77.5739 156.149 77.7017 156.455 77.9006C156.762 78.0966 157.007 78.3437 157.188 78.642C157.37 78.9403 157.461 79.2699 157.461 79.6307C157.461 80.1023 157.302 80.5256 156.984 80.9006C156.669 81.2756 156.234 81.5724 155.68 81.7912C155.129 82.0099 154.501 82.1193 153.796 82.1193ZM153.796 80.483C154.021 80.483 154.22 80.4375 154.393 80.3466C154.566 80.2557 154.703 80.1307 154.802 79.9716C154.904 79.8097 154.955 79.6278 154.955 79.4261C154.955 79.2244 154.904 79.0455 154.802 78.8892C154.703 78.733 154.566 78.6108 154.393 78.5227C154.22 78.4318 154.021 78.3864 153.796 78.3864C153.575 78.3864 153.376 78.4318 153.2 78.5227C153.026 78.6108 152.889 78.733 152.786 78.8892C152.687 79.0455 152.637 79.2244 152.637 79.4261C152.637 79.6278 152.687 79.8082 152.786 79.9673C152.889 80.1264 153.026 80.2528 153.2 80.3466C153.376 80.4375 153.575 80.483 153.796 80.483ZM153.796 76.75C153.995 76.75 154.171 76.7088 154.325 76.6264C154.478 76.544 154.599 76.4304 154.687 76.2855C154.775 76.1406 154.819 75.9773 154.819 75.7955C154.819 75.6136 154.775 75.4531 154.687 75.3139C154.599 75.1719 154.478 75.0611 154.325 74.9815C154.171 74.8991 153.995 74.858 153.796 74.858C153.6 74.858 153.424 74.8991 153.268 74.9815C153.115 75.0611 152.994 75.1719 152.906 75.3139C152.818 75.4531 152.774 75.6136 152.774 75.7955C152.774 75.9773 152.818 76.1406 152.906 76.2855C152.994 76.4276 153.115 76.5412 153.268 76.6264C153.424 76.7088 153.6 76.75 153.796 76.75Z" fill="#1D1E19"/>
<path fill-rule="evenodd" clip-rule="evenodd" d="M148.67 67C139.482 43.5813 116.677 27 90 27C63.3227 27 40.5182 43.5813 31.3304 67H29.1865C38.4751 42.4531 62.1994 25 90 25C117.801 25 141.525 42.4531 150.814 67H148.67Z" fill="#B84C37"/>
<defs>
<clipPath id="clip0_180_48">
<rect width="61" height="73" fill="white" transform="translate(60 46)"/>
</clipPath>
</defs>
</svg>
