<svg width="141" height="141" viewBox="0 0 141 141" fill="none" xmlns="http://www.w3.org/2000/svg">
<g clip-path="url(#clip0_25_242)">
<path d="M70.5007 140.588C109.209 140.588 140.588 109.209 140.588 70.5007C140.588 31.7927 109.209 0.413696 70.5007 0.413696C31.7927 0.413696 0.413696 31.7927 0.413696 70.5007C0.413696 109.209 31.7927 140.588 70.5007 140.588Z" fill="#B84C37"/>
<path d="M70.5007 0C31.6264 0 0 31.6264 0 70.5007C0 109.375 31.6264 141.001 70.5007 141.001C109.375 141.001 141.001 109.375 141.001 70.5007C141.001 31.6264 109.375 0 70.5007 0ZM70.5007 137.913C33.3295 137.913 3.08887 107.672 3.08887 70.5007C3.08887 33.3295 33.3295 3.08887 70.5007 3.08887C107.672 3.08887 137.913 33.3295 137.913 70.5007C137.913 107.672 107.672 137.913 70.5007 137.913Z" fill="#1D1E19"/>
<path d="M54.1186 54.3613L51.0091 50.6299L51.631 47.5203L53.4967 45.0327L62.2035 44.4108H69.6664L77.7513 45.6546L87.7018 48.7641L90.8114 49.3861L92.6771 52.4956V55.6052L90.1895 58.7147L90.8114 60.5804L87.0799 66.1776L86.458 74.2625L84.5923 75.5063L83.9704 74.2625L77.1294 84.835L76.5074 91.0541L74.6417 92.2979L73.3979 91.0541L70.2883 94.7855L66.5569 95.4075L64.6911 92.9198L60.3378 77.3734L57.2282 76.1296L56.6063 72.3981L57.8501 70.5324L56.6063 68.0448L53.4967 61.8256L52.8748 58.0942L54.1186 54.3627V54.3613Z" fill="white"/>
<path d="M53.4926 55.9982C53.3092 55.3376 53.1327 54.6882 52.9424 54.0442C52.9203 53.9697 52.8266 53.9008 52.7521 53.8594C50.9581 52.8445 50.11 50.5623 50.4672 48.4953C50.9195 45.878 52.9272 44.0426 55.5114 43.8344C58.0128 43.6317 65.3792 43.0484 67.8793 43.1918C72.8766 43.4772 77.805 44.226 82.6314 45.6215C84.7674 46.2393 86.8524 46.9991 88.9071 47.8568C89.1759 47.9685 89.4807 47.9933 89.7648 48.0705C91.8222 48.618 93.5362 50.594 93.8396 52.7824C94.1967 55.3638 93.3266 57.4337 91.3244 59.0098C91.0968 59.1891 91.0017 59.3532 91.0527 59.6469C91.2058 60.5212 90.9658 61.3154 90.5218 62.0504C89.6572 63.479 88.7885 64.9035 87.9087 66.3224C87.7198 66.6272 87.6232 66.9306 87.626 67.3001C87.6439 69.3451 87.6219 71.3901 87.6467 73.4365C87.6605 74.5093 87.3171 75.3781 86.3891 75.9007C85.4293 76.4426 84.4654 76.3571 83.5512 75.7269C83.5236 75.7076 83.4933 75.6939 83.4353 75.6621C83.2147 76 82.9913 76.3337 82.7776 76.6729C81.0235 79.457 79.2723 82.2425 77.5127 85.0239C77.35 85.2804 77.2824 85.5369 77.2852 85.8416C77.2962 87.3378 77.2797 88.834 77.2976 90.3301C77.3114 91.4678 76.8549 92.3282 75.8897 92.8591C74.9465 93.3776 74.0253 93.248 73.1704 92.5971C73.1249 92.5627 73.0766 92.5323 72.9939 92.4758C72.8932 92.6385 72.798 92.8054 72.6891 92.9612C72.2258 93.6245 71.7983 94.3195 71.2853 94.94C70.1325 96.3355 68.6474 96.9188 66.8906 96.5465C65.211 96.1907 64.2126 95.0076 63.7204 93.3942C63.1701 91.5919 62.7054 89.7606 62.2187 87.939C61.3348 84.6323 60.4633 81.32 59.5849 78.0119C59.5559 77.9029 59.509 77.7981 59.4663 77.6796C58.7244 77.9333 58.0197 77.954 57.3427 77.543C56.5649 77.0714 56.2064 76.3626 56.205 75.4498C56.2009 73.2517 56.1954 71.055 56.2023 68.8583C56.2023 68.5895 56.1113 68.4405 55.9017 68.293C53.7339 66.7527 52.6832 64.6277 52.8514 61.9222C52.9148 60.9142 52.5715 60.1971 51.7275 59.72C51.4173 59.5449 51.2766 59.2525 51.2918 58.9409C51.3249 58.2707 51.3925 57.5964 51.5097 56.9372C51.5979 56.4394 51.9827 56.1692 52.4487 56.0864C52.8114 56.0216 53.1561 55.9954 53.4857 56.0064H53.4871L53.4926 55.9982ZM59.2374 69.7161C59.2553 69.7891 59.2884 69.9243 59.3242 70.058C59.9186 72.2864 60.5184 74.5148 61.11 76.7432C61.645 78.7593 62.1718 80.7767 62.7137 82.7914C62.7441 82.9031 62.864 83.0437 62.9674 83.0727C63.3922 83.194 63.8403 83.2381 64.2568 83.3829C66.0232 83.9993 67.1526 85.814 67.0037 87.7198C66.8947 89.1125 66.2645 90.1936 65.2055 91.0403C65.109 91.1175 64.9904 91.2802 65.0111 91.374C65.0966 91.7698 65.1931 92.1724 65.353 92.5406C65.6081 93.1267 66.2039 93.3721 66.8051 93.2094C67.4849 93.026 67.8972 92.5075 68.2613 91.9532C69.119 90.6459 69.9505 89.3207 70.7999 88.008C70.913 87.8328 70.8951 87.7253 70.7737 87.5543C69.7878 86.167 69.6457 84.6585 70.3476 83.1237C71.1088 81.4565 72.8449 80.5657 74.7396 80.7767C74.9851 80.8043 75.1202 80.7491 75.2567 80.5299C77.321 77.2135 79.3936 73.904 81.4634 70.5917C81.5213 70.4993 81.5613 70.3973 81.6441 70.2304C81.4896 70.2883 81.4069 70.3159 81.3283 70.3504C79.7728 71.0399 78.1581 71.2646 76.4909 70.9461C73.6654 70.4069 71.688 68.7853 70.6303 66.0177C70.2773 65.0952 70.2704 64.1258 70.2208 63.1577C70.1877 62.5013 69.7257 62.0353 69.09 61.9622C68.3178 61.8725 67.7304 62.409 67.6118 63.3108C67.2133 66.3542 64.9283 68.9011 62.0008 69.4747C61.1072 69.6499 60.1778 69.6388 59.236 69.7147L59.2374 69.7161ZM86.2622 48.9365C86.1726 48.8965 86.1119 48.8662 86.0499 48.8414C84.1372 48.0885 82.1681 47.5245 80.1796 47.0322C76.6784 46.1648 73.1235 45.6615 69.5396 45.3443C66.4507 45.0713 58.6982 45.434 55.2963 45.7801C53.061 45.9387 51.6793 47.8265 52.0626 50.0962C52.2653 51.2959 53.1465 52.3729 54.6551 52.3012C56.1968 52.2295 62.7137 52.1523 64.2581 52.1853C66.9444 52.2433 69.6154 52.1302 72.2685 52.5728C75.9793 53.1934 79.6253 54.0704 83.1471 55.4438C83.3347 55.5169 83.5236 55.5803 83.7222 55.6521C83.7153 52.0957 84.1 51.0698 86.2622 48.9365ZM83.5029 63.5204C83.5029 62.9357 83.5594 62.4724 83.4933 62.0284C83.2836 60.6384 82.4411 59.7407 81.2359 59.1684C80.3658 58.7547 79.4308 58.6278 78.4862 58.5686C77.1183 58.4803 75.7518 58.4775 74.4473 58.9864C73.3179 59.4263 72.4478 60.2247 72.2354 61.452C72.0617 62.4572 72.0355 63.5397 72.1941 64.5463C72.496 66.4548 73.6282 67.8324 75.3229 68.6529C77.3141 69.6168 79.3136 69.552 81.1683 68.3026C82.8631 67.1622 83.6284 65.4813 83.5029 63.5232V63.5204ZM54.6854 61.7898C54.6854 61.9539 54.6882 62.1166 54.6854 62.2807C54.6358 64.2526 55.4962 65.7378 57.0407 66.8285C58.2293 67.6683 59.5724 67.86 60.9845 67.7414C63.1274 67.5621 65.2565 65.7391 65.6881 63.5756C65.8467 62.7744 65.7888 61.9277 65.8246 61.1017C65.8564 60.3571 65.6164 59.7021 65.1765 59.1201C64.6139 58.3769 63.9286 57.7922 63.0529 57.4806C61.1265 56.7966 59.1574 56.7897 57.2034 57.2516C55.9072 57.5578 55.0632 58.4762 54.8012 59.8386C54.6785 60.4729 54.6758 61.7898 54.6854 61.7912V61.7898ZM84.311 58.199C84.3179 58.1687 84.3261 58.1397 84.3344 58.1094C84.1786 58.0197 84.0269 57.9204 83.867 57.8446C81.4276 56.7014 78.8655 55.9389 76.2689 55.2908C76.1779 55.2687 76.0289 55.3252 75.96 55.3997C74.7369 56.718 73.2614 57.1206 71.5708 56.6421C70.3476 56.296 69.5782 55.3845 69.0114 54.2759C68.9025 54.0621 68.7811 53.9725 68.5495 53.949C65.9984 53.6912 58.3493 53.8277 55.79 53.8787C55.4411 53.8856 55.0922 53.8787 54.6827 53.8787C54.8274 54.4041 54.964 54.8674 55.0826 55.3376C55.135 55.5431 55.2218 55.6314 55.4452 55.6521C57.6171 55.8451 64.8097 56.1871 66.7403 57.2392C67.7759 57.8032 68.8335 58.0197 69.9795 58.028C70.6138 58.0321 71.2164 57.9563 71.819 57.7563C73.4351 57.2185 75.1106 57.0793 76.797 57.0283C78.7331 56.969 80.6223 57.3192 82.5004 57.7481C83.1072 57.8873 83.7084 58.0487 84.3124 58.2004L84.311 58.199ZM92.229 53.9077C92.1959 52.3384 91.7863 51.227 90.7962 50.3899C89.8847 49.6177 88.6988 49.5309 87.677 50.1486C85.8968 51.2284 84.9467 53.8304 85.5907 55.8617C86.3284 58.1893 88.7871 58.9326 90.588 57.3606C91.7036 56.387 92.211 55.117 92.2276 53.9077H92.229ZM82.5831 72.2713C82.437 72.4795 82.3267 72.6243 82.2287 72.7787C81.9461 73.2297 81.6703 73.6861 81.389 74.137C78.5166 78.7345 75.5835 83.2892 72.5223 87.757C72.434 87.8866 72.405 88.059 72.3485 88.212C72.514 88.2589 72.6795 88.3155 72.8477 88.3486C72.9208 88.3624 73.0049 88.332 73.0807 88.3127C73.6502 88.1693 73.8805 88.3486 73.886 88.9581C73.8929 89.4959 73.8778 90.0336 73.8929 90.5701C73.9026 90.952 74.1301 91.1947 74.4624 91.3244C74.7906 91.4526 75.1244 91.3933 75.3284 91.1092C75.4787 90.8996 75.5891 90.6073 75.5932 90.3494C75.618 88.7953 75.6263 87.2413 75.5987 85.6872C75.5891 85.1066 75.7504 84.6267 76.051 84.1496C78.0795 80.9242 80.0762 77.6768 82.1267 74.4666C82.5583 73.7923 82.6921 73.1221 82.5818 72.2699L82.5831 72.2713ZM89.4903 59.9792C88.7567 59.8992 88.7609 59.9006 88.5361 60.4398C88.4658 60.6108 88.3789 60.7763 88.2865 60.9362C87.9873 61.4589 87.6632 61.9677 87.3888 62.5027C87.2578 62.7592 87.0979 62.9192 86.84 63.0295C86.0705 63.3591 85.5024 63.9355 85.3369 64.7697C84.9784 66.5789 84.1938 68.1247 82.8934 69.4003C82.7734 69.5175 82.6728 69.6719 82.6093 69.8278C82.4659 70.1766 82.6287 70.4345 82.9982 70.4497C83.1761 70.4566 83.3595 70.418 83.5332 70.3738C83.8904 70.2828 84.1648 70.4221 84.2627 70.7875C84.3041 70.942 84.3151 71.1102 84.3165 71.2715C84.3206 72.0189 84.3082 72.7663 84.3165 73.5137C84.3193 73.6944 84.3399 73.8943 84.4158 74.0529C84.5895 74.4156 84.9729 74.5741 85.3328 74.4735C85.7382 74.3604 85.963 74.0363 85.9644 73.5509C85.9685 71.4246 85.9906 69.2982 85.9602 67.1719C85.9506 66.4727 86.1216 65.8881 86.4884 65.3048C87.4012 63.8541 88.2741 62.3772 89.1442 60.899C89.2987 60.6356 89.3662 60.3171 89.489 59.9778L89.4917 59.9806L89.4903 59.9792ZM66.5003 94.4642C66.9375 94.8173 67.4808 94.9634 67.9841 94.9138C69.09 94.8035 69.8733 94.1733 70.4828 93.277C70.9695 92.5599 71.4025 91.8029 71.9072 91.101C72.2244 90.6597 72.1127 90.2184 72.0603 89.7372C71.91 89.8185 71.7859 89.9109 71.7031 90.0336C71.1295 90.8734 70.5683 91.7215 69.9974 92.564C69.1631 93.7955 68.1413 94.678 66.5003 94.4642ZM57.9646 71.9031C57.9494 71.9072 57.9329 71.91 57.9163 71.9141C57.9163 73.0352 57.9108 74.1577 57.9191 75.2788C57.9232 75.8152 58.29 76.1337 58.7258 76.0041C58.9271 75.9448 59.0526 75.818 58.9905 75.5918C58.6527 74.3604 58.3079 73.1317 57.9646 71.9017V71.9031ZM84.8777 61.423C85.2666 61.423 85.5769 61.1155 85.5851 60.7252C85.592 60.3419 85.279 60.0303 84.8819 60.0247C84.4861 60.0206 84.1841 60.3226 84.1827 60.7239C84.1827 61.1265 84.4778 61.4244 84.8777 61.423ZM54.3462 58.1231C54.3531 57.7481 54.0401 57.4433 53.6388 57.4337C53.2637 57.424 52.9562 57.7219 52.9521 58.0969C52.9465 58.4527 53.2651 58.7837 53.6222 58.7947C54.0111 58.8071 54.3407 58.5037 54.3476 58.1231H54.3462Z" fill="#1D1E19"/>
<path d="M75.7449 73.5606C75.6952 76.4109 73.4144 79.1578 70.5945 79.6377C67.7566 80.1203 65.4413 79.1868 63.8196 76.7281C62.8695 75.2885 62.522 73.6627 62.9012 71.921C62.9592 71.6563 63.0805 71.5653 63.3466 71.5818C65.593 71.7211 67.8407 71.8424 70.087 71.9803C71.6287 72.0755 73.169 72.1872 74.712 72.2906C74.8141 72.2975 74.9161 72.3044 75.0182 72.3154C75.5766 72.3747 75.7394 72.5609 75.7463 73.1483C75.7463 73.2655 75.7463 73.3814 75.7463 73.562L75.7449 73.5606ZM72.8697 76.5474C72.7415 76.4288 72.6491 76.3254 72.5415 76.2454C71.3487 75.3629 70.0098 75.0761 68.5715 75.2719C67.7566 75.3822 67.023 75.727 66.401 76.2868C65.9487 76.6922 65.968 76.8715 66.4686 77.2121C67.3415 77.8078 68.3026 78.1374 69.3506 78.1401C70.7268 78.1457 71.8852 77.6134 72.8697 76.5488V76.5474Z" fill="#1D1E19"/>
<path d="M67.9938 66.9223C68.5577 66.7968 69.1507 66.8782 69.6416 67.1898C70.1449 67.5097 70.5297 68.0241 70.6579 68.6212C70.7475 69.0362 70.6069 69.4403 70.3021 69.643C69.9353 69.8857 69.5051 69.7312 69.3741 69.3024C69.3231 69.1369 69.3189 68.9494 69.2417 68.8004C69.068 68.4667 68.7784 68.2916 68.4047 68.2957C68.0434 68.3013 67.7842 68.4709 67.6187 68.8101C67.4284 69.2017 67.136 69.352 66.8327 69.2431C66.5003 69.1245 66.299 68.7618 66.3583 68.3702C66.4342 67.8724 66.7113 67.4877 67.125 67.2684C67.4215 67.1112 67.6504 66.9968 67.9924 66.9209L67.9938 66.9223Z" fill="#1D1E19"/>
<path d="M58.723 49.9114C58.3824 49.9018 58.1273 49.7432 58.1052 49.4219C58.0818 49.1006 58.2624 48.8676 58.6072 48.7793C58.6941 48.7573 58.7851 48.7338 58.8747 48.7311C59.9986 48.7049 61.1224 48.6773 62.2476 48.6593C62.6393 48.6525 62.9261 48.9048 62.9371 49.233C62.9495 49.6067 62.6613 49.9073 62.2642 49.9101C61.401 49.917 59.6759 49.9128 59.6759 49.9128C59.6759 49.9128 59.0416 49.9225 58.723 49.9128V49.9114Z" fill="#1D1E19"/>
<path d="M77.4189 50.3693C77.5899 50.3638 77.9002 50.481 78.1208 50.5347C78.8048 50.6988 79.4901 50.8533 80.1714 51.0298C80.6981 51.1663 80.9022 51.4531 80.7905 51.8503C80.6747 52.2598 80.3148 52.4281 79.8349 52.3081C79.0434 52.1109 78.2436 51.9427 77.4617 51.7082C77.2604 51.6476 77.0687 51.5648 76.9211 51.3897C76.8756 51.3359 76.8425 51.2752 76.8191 51.2091C76.7653 51.0601 76.7336 50.8698 76.8646 50.652C77.0301 50.3775 77.2976 50.3748 77.4203 50.3706L77.4189 50.3693Z" fill="#1D1E19"/>
<path d="M80.2775 48.327C80.4375 48.2898 80.6043 48.2981 80.7629 48.3381C80.9463 48.3849 81.178 48.4442 81.4096 48.5077C81.924 48.6483 82.4411 48.7793 82.9486 48.9434C83.3333 49.0689 83.5029 49.3957 83.3995 49.7212C83.2892 50.0686 83.0065 50.2148 82.6066 50.1142C81.8371 49.9197 81.0663 49.7212 80.2996 49.5143C79.9411 49.4178 79.7494 49.1392 79.7976 48.8303C79.8376 48.5725 79.9935 48.3946 80.2761 48.327H80.2775Z" fill="#1D1E19"/>
<path d="M73.0973 63.0502C74.861 63.1246 76.6122 63.2005 78.4297 63.2777C77.4617 62.1083 76.5433 60.9955 75.6235 59.8841L75.669 59.771C76.6867 59.771 77.7085 59.7241 78.7234 59.7862C79.4419 59.8289 80.1769 59.9392 80.8608 60.1613C82.0247 60.5405 82.6245 61.5485 82.5707 62.7992C82.5514 63.2418 82.5638 63.6872 82.5183 64.1285C82.3211 66.0894 81.0732 67.6531 79.2212 68.1289C76.3061 68.879 73.5592 67.0574 73.1028 63.9561C73.0628 63.6831 73.0973 63.399 73.0973 63.0474V63.0502ZM76.6977 64.778C76.7074 64.4278 76.3847 64.0968 76.0193 64.0858C75.6621 64.0747 75.3657 64.3574 75.3436 64.7311C75.3229 65.0952 75.6318 65.4358 75.9945 65.4468C76.3502 65.4592 76.6867 65.1393 76.6977 64.7794V64.778Z" fill="#1D1E19"/>
<path d="M58.1025 58.2652C59.5242 58.1604 60.8535 58.1452 62.1773 58.3286C63.5163 58.5148 64.6912 59.52 64.8911 60.7404C65.3903 63.7893 63.7204 66.1804 61.1417 66.7168C59.0774 67.1471 56.8628 66.0053 56.001 64.0389C55.6438 63.2253 55.7348 62.3745 55.7514 61.4561C57.424 61.5333 59.0705 61.6092 60.808 61.6891C59.8841 60.5212 59.0154 59.4221 58.1025 58.2652ZM58.017 63.7369C58.3617 63.7479 58.6761 63.4721 58.6968 63.137C58.7175 62.8047 58.4017 62.4641 58.0584 62.4489C57.6888 62.4324 57.3868 62.704 57.3675 63.0709C57.3482 63.4197 57.6461 63.7245 58.0184 63.7369H58.017Z" fill="#1D1E19"/>
<path d="M87.0275 55.801C86.7338 55.2163 86.6318 54.5489 86.7366 53.9008C86.8662 53.0996 87.1379 52.4474 87.6453 51.8972C88.1914 51.3056 88.8574 50.9719 89.6669 51.187C90.468 51.4007 90.9121 51.9937 91.1272 52.7907C91.5133 54.2207 90.8169 55.9223 89.5676 56.5953C88.6078 57.111 87.5281 56.7994 87.0331 55.8134C87.0303 55.8093 87.0289 55.8051 87.0262 55.801H87.0275Z" fill="#1D1E19"/>
<path d="M81.6468 98.1585C81.4703 98.1585 81.2924 98.0964 81.1476 97.9709L78.2173 95.413C77.9016 95.1372 77.8698 94.6587 78.1443 94.3429C78.4201 94.0271 78.8986 93.9954 79.2143 94.2698L82.1446 96.8278C82.4604 97.1036 82.4921 97.5821 82.2177 97.8979C82.0674 98.0702 81.8578 98.1571 81.6468 98.1571V98.1585Z" fill="#1D1E19"/>
<path d="M63.0378 103.521C62.9468 103.521 62.8558 103.505 62.7661 103.47C62.3745 103.32 62.1801 102.881 62.3304 102.49L63.4804 99.4919C63.6307 99.1003 64.0692 98.9059 64.4609 99.0562C64.8525 99.2065 65.0469 99.645 64.8966 100.037L63.7466 103.034C63.6307 103.336 63.3439 103.521 63.0378 103.521Z" fill="#1D1E19"/>
<path d="M52.4873 89.4724C52.2033 89.4724 51.9316 89.3124 51.802 89.0394C51.6227 88.6616 51.7841 88.2093 52.1619 88.0286L55.4038 86.4897C55.7831 86.3104 56.234 86.4718 56.4146 86.8496C56.5953 87.2275 56.4325 87.6798 56.0547 87.8604L52.8128 89.3993C52.708 89.449 52.5977 89.4724 52.4887 89.4724H52.4873Z" fill="#1D1E19"/>
<path d="M44.9058 63.5728C44.488 63.5728 44.1488 63.235 44.1474 62.8158C44.1474 62.3966 44.4852 62.056 44.9045 62.056L49.0468 62.0449H49.0496C49.4674 62.0449 49.8067 62.3828 49.808 62.802C49.808 63.2212 49.4702 63.5618 49.051 63.5618L44.9086 63.5728H44.9058Z" fill="#1D1E19"/>
<path d="M47.7148 76.9873C47.3866 76.9873 47.0846 76.7736 46.988 76.4426C46.8695 76.0413 47.0997 75.6194 47.501 75.5008L51.2932 74.3838C51.6944 74.2652 52.1164 74.4955 52.235 74.8968C52.3536 75.2981 52.1233 75.72 51.722 75.8386L47.9299 76.9556C47.8582 76.9763 47.7865 76.9859 47.7148 76.9859V76.9873Z" fill="#1D1E19"/>
<path d="M90.3867 83.918C90.2791 83.918 90.1688 83.8945 90.064 83.8463L86.3725 82.1088C85.9933 81.9309 85.8306 81.4786 86.0098 81.0994C86.1877 80.7202 86.64 80.5574 87.0192 80.7367L90.7107 82.4742C91.0899 82.6521 91.2526 83.1044 91.0734 83.4836C90.9438 83.758 90.6707 83.9193 90.3867 83.9193V83.918Z" fill="#1D1E19"/>
<path d="M96.0956 67.0712C96.0735 67.0712 96.0515 67.0712 96.028 67.0685L92.1628 66.7292C91.745 66.692 91.4374 66.3252 91.4733 65.9074C91.5092 65.4896 91.8746 65.182 92.2952 65.2179L96.1604 65.5571C96.5782 65.5944 96.8857 65.9612 96.8499 66.379C96.8154 66.7734 96.4844 67.0712 96.0956 67.0712Z" fill="#1D1E19"/>
<path d="M26.8711 36.1754L25.7554 37.6415L36.0191 45.4518L37.1347 43.9857L26.8711 36.1754Z" fill="white"/>
<path d="M33.9004 31.1521L32.5724 29.8738L28.4824 34.1196L29.809 35.3979L31.2155 33.939L39.1776 41.6087L40.4559 40.2822L32.4938 32.611L33.9004 31.1521Z" fill="white"/>
<path d="M38.3544 25.1977L37.2319 26.0651C36.7658 26.425 36.4252 26.8553 36.2129 27.3531C36.0005 27.8509 35.9081 28.3955 35.9371 28.9857C35.966 29.5759 36.115 30.1951 36.3825 30.8418C36.65 31.4886 37.0389 32.1436 37.5491 32.8041L42.0555 38.6357L43.5131 37.5091L41.8238 35.3221L43.7199 33.8576L45.4091 36.0446L46.8667 34.918L38.9804 24.711L38.353 25.195L38.3544 25.1977ZM40.6972 33.8659L39.008 31.6789C38.6702 31.2417 38.4013 30.8129 38.2013 30.3937C38.0014 29.9745 37.8745 29.5828 37.8194 29.2215C37.7656 28.8603 37.7807 28.5334 37.8662 28.2425C37.9517 27.9515 38.1158 27.7116 38.3585 27.524L38.6495 27.2993L42.5919 32.4028L40.6959 33.8673L40.6972 33.8659Z" fill="white"/>
<path d="M37.4208 22.8452L35.8516 21.8689L33.4949 25.599L35.049 26.5863L37.4208 22.8452Z" fill="white"/>
<path d="M48.4663 31.8884L43.098 22.2247L41.4874 23.1183L47.7506 34.394L51.9385 32.0677L51.0436 30.4571L48.4663 31.8884Z" fill="white"/>
<path d="M49.6528 19.0395L47.9573 19.7602L53.0035 31.6309L54.6989 30.9102L49.6528 19.0395Z" fill="white"/>
<path d="M56.1706 16.8564L55.8162 16.9584C55.2494 17.1225 54.7764 17.3983 54.3958 17.7831C54.0153 18.1692 53.7298 18.6408 53.5409 19.2006C53.352 19.7605 53.2623 20.3907 53.2734 21.0912C53.2844 21.7917 53.4071 22.5432 53.6388 23.3444L55.6921 30.4226L57.4613 29.9096L56.6918 27.2551L58.9919 26.5877L59.7614 29.2422L61.5306 28.7292L57.9384 16.342L56.1692 16.855L56.1706 16.8564ZM56.1788 25.4873L55.4094 22.8328C55.2549 22.3019 55.1625 21.8041 55.1308 21.3408C55.0991 20.8774 55.1239 20.4665 55.2053 20.1107C55.2867 19.755 55.4218 19.4571 55.6079 19.2172C55.7941 18.9772 56.0354 18.8145 56.3305 18.729L56.6849 18.627L58.4817 24.8213L56.1816 25.4887L56.1788 25.4873Z" fill="white"/>
<path d="M71.7514 17.9389C71.4881 17.3253 71.1309 16.804 70.6759 16.3738C70.2222 15.9435 69.6816 15.6153 69.0542 15.3864C68.4268 15.1575 67.7331 15.0541 66.972 15.0748L66.2356 15.0955L66.59 27.9887L68.4323 27.9377L68.3537 25.0791C68.6915 25.0088 69.0114 24.9081 69.3134 24.7799C69.9271 24.5179 70.4483 24.1594 70.8786 23.7043C71.3088 23.2506 71.637 22.7101 71.8659 22.0827C72.0948 21.4566 72.1982 20.7616 72.1775 20.0004C72.1568 19.2392 72.0148 18.5525 71.7528 17.9389H71.7514ZM70.1408 21.3753C69.9988 21.7793 69.7892 22.1254 69.5148 22.415C69.2403 22.706 68.9053 22.9321 68.5109 23.0976C68.4433 23.1265 68.3716 23.1486 68.3013 23.1734L68.133 17.0481C68.2048 17.0674 68.2778 17.0867 68.3468 17.1115C68.7494 17.2549 69.0969 17.4631 69.3865 17.7376C69.6761 18.012 69.9036 18.3471 70.0691 18.7414C70.2332 19.1358 70.3228 19.573 70.3352 20.0515C70.349 20.53 70.2842 20.9712 70.1408 21.3753Z" fill="white"/>
<path d="M74.2153 15.1138L73.1494 27.9685L74.9854 28.1207L76.0513 15.266L74.2153 15.1138Z" fill="white"/>
<path d="M84.7274 16.7364L82.921 16.3751L79.3619 15.665L79.0006 17.4714L81.8716 18.0451L75.5711 28.0604L76.5474 28.2563L81.3531 29.2146L81.7144 27.4082L78.4283 26.7518L84.7274 16.7364Z" fill="white"/>
<path d="M92.9088 19.6005L91.181 18.9607L87.7763 17.7031L87.1378 19.4309L89.8834 20.4458L82.095 29.3539L83.0286 29.6987L87.626 31.3975L88.2645 29.6697L85.1218 28.5086L92.9088 19.6005Z" fill="white"/>
<path d="M100.65 18.9759L96.2872 18.3098L96.0059 20.13L100.383 20.8044L100.65 18.9759Z" fill="white"/>
<path d="M92.2924 29.4408L94.8779 30.857L95.7632 29.2409L93.1777 27.8247L94.8586 24.7537C94.9883 24.5165 95.1206 24.3056 95.2572 24.1208C95.3937 23.936 95.5261 23.7843 95.6529 23.6657C95.7812 23.5471 95.8956 23.4658 95.9963 23.423C96.0969 23.3803 96.1742 23.3734 96.2279 23.4023L98.3295 24.5524L99.2148 22.9362L97.1132 21.7862C96.8223 21.6262 96.5079 21.5559 96.1687 21.5738C95.8294 21.5918 95.4847 21.6897 95.1344 21.8689C94.7842 22.0482 94.4477 22.3047 94.1237 22.6398C93.801 22.9735 93.5059 23.383 93.2411 23.8684L88.816 31.9491L90.4322 32.8344L93.0177 34.2506L93.903 32.6345L91.3175 31.2183L92.291 29.4408H92.2924Z" fill="white"/>
<path d="M99.4658 34.1596C99.6243 34.1541 99.7815 34.1403 99.9374 34.1182C100.557 34.0313 101.151 33.8135 101.72 33.4646C102.29 33.1171 102.803 32.6386 103.261 32.0291C103.718 31.421 104.036 30.7949 104.212 30.151C104.389 29.507 104.433 28.8768 104.346 28.2563C104.259 27.6371 104.04 27.0428 103.692 26.4733C103.345 25.9038 102.866 25.3908 102.257 24.933L101.668 24.4903L93.9141 34.798L95.3868 35.9054L97.105 33.6204C97.2994 33.7183 97.4952 33.8011 97.6938 33.8714C97.7434 34.0575 97.7738 34.2492 97.7862 34.4464C97.8096 34.856 97.7614 35.2917 97.6428 35.7564C97.5242 36.2211 97.3366 36.6941 97.0802 37.1781L98.5529 38.2854C99.0107 37.3698 99.3003 36.4845 99.4202 35.6296C99.4947 35.1028 99.5085 34.6119 99.4644 34.1568L99.4658 34.1596ZM102.396 29.7318C102.279 30.1427 102.076 30.5398 101.788 30.9232C101.5 31.3065 101.174 31.6113 100.812 31.8374C100.449 32.0636 100.07 32.2056 99.674 32.2608C99.2782 32.3173 98.8742 32.2856 98.4632 32.1684C98.3915 32.1477 98.3212 32.1242 98.2509 32.098L101.935 27.1986C101.98 27.2593 102.024 27.3186 102.064 27.382C102.29 27.7447 102.432 28.1239 102.487 28.5196C102.542 28.9154 102.512 29.3181 102.395 29.7304L102.396 29.7318Z" fill="white"/>
<path d="M107.902 29.4785L99.0527 38.8628L100.393 40.1268L109.243 30.7425L107.902 29.4785Z" fill="white"/>
<path d="M113.858 35.8295L113.622 35.5468C113.244 35.0945 112.802 34.7719 112.296 34.5788C111.789 34.3858 111.242 34.3154 110.653 34.3664C110.064 34.4188 109.452 34.5912 108.815 34.8822C108.178 35.1745 107.54 35.5882 106.9 36.1246L101.246 40.8531L102.428 42.2665L104.549 40.4932L106.085 42.3313L103.965 44.1047L105.147 45.5181L115.041 37.243L113.859 35.8295H113.858ZM105.961 39.3114L108.08 37.5381C108.505 37.1837 108.921 36.8982 109.334 36.6817C109.745 36.4652 110.131 36.3232 110.491 36.2556C110.849 36.1867 111.176 36.1908 111.471 36.2639C111.765 36.3384 112.012 36.4928 112.207 36.7286L112.443 37.0113L107.495 41.1482L105.959 39.31L105.961 39.3114Z" fill="white"/>
<path d="M40.6559 112.606L41.7811 111.165L39.4755 109.364L41.6143 106.625C41.7797 106.414 41.9425 106.228 42.1066 106.07C42.2693 105.911 42.4237 105.783 42.5671 105.688C42.7119 105.591 42.836 105.53 42.9422 105.504C43.047 105.478 43.1242 105.483 43.1725 105.522L45.0465 106.985L46.1717 105.544L44.2977 104.081C44.0385 103.878 43.7406 103.758 43.4069 103.721C43.0718 103.684 42.7188 103.725 42.3479 103.845C41.9755 103.965 41.6046 104.162 41.235 104.438C40.8655 104.714 40.5111 105.068 40.1732 105.5L38.0345 108.239L36.9093 109.68L35.6709 111.265L34.5457 112.706L35.9867 113.832L38.2923 115.633L39.4176 114.192L37.112 112.391L38.3503 110.805L40.6559 112.606Z" fill="white"/>
<path d="M48.2098 101.894L44.0454 100.544L43.4772 102.282L47.6569 103.643L48.2098 101.894Z" fill="white"/>
<path d="M49.9253 107.832C49.8246 107.738 49.7212 107.648 49.615 107.566C49.5088 107.482 49.4137 107.415 49.3296 107.366C48.9724 107.156 48.589 107.027 48.1795 106.977C47.7699 106.927 47.3687 106.949 46.9743 107.043C46.5799 107.137 46.2131 107.3 45.8725 107.531C45.5319 107.763 45.2561 108.057 45.0465 108.414C44.7624 108.898 44.5956 109.375 44.5446 109.847C44.4935 110.318 44.5004 110.783 44.5666 111.237C44.6314 111.692 44.7335 112.137 44.8741 112.573C45.0134 113.008 45.1306 113.43 45.223 113.837C45.3154 114.245 45.3609 114.643 45.3595 115.03C45.3581 115.418 45.252 115.791 45.0424 116.148C44.9431 116.317 44.8148 116.457 44.6576 116.569C44.4991 116.681 44.3322 116.756 44.1543 116.794C43.9764 116.831 43.7958 116.838 43.6124 116.814C43.4276 116.791 43.2566 116.733 43.0994 116.641C42.9946 116.579 42.8733 116.49 42.7367 116.375C42.6002 116.259 42.4706 116.13 42.3493 115.988C42.2279 115.846 42.119 115.695 42.0238 115.532C41.9287 115.369 41.8666 115.204 41.8404 115.033L40.9055 116.625C40.9482 116.89 41.093 117.177 41.344 117.487C41.5936 117.796 41.8914 118.053 42.2389 118.257C42.6071 118.473 43.0043 118.596 43.4317 118.628C43.8592 118.659 44.277 118.615 44.6866 118.495C45.0961 118.375 45.4754 118.188 45.8229 117.933C46.1704 117.678 46.4461 117.376 46.6502 117.03C46.9219 116.568 47.0805 116.103 47.1287 115.635C47.177 115.169 47.166 114.71 47.0984 114.261C47.0294 113.811 46.926 113.368 46.7854 112.933C46.6447 112.497 46.5275 112.078 46.431 111.675C46.3344 111.272 46.2834 110.885 46.2752 110.513C46.2669 110.14 46.3565 109.797 46.5413 109.481C46.6461 109.302 46.7716 109.154 46.9191 109.036C47.0667 108.917 47.2184 108.833 47.3742 108.783C47.53 108.734 47.6913 108.719 47.8568 108.738C48.0223 108.757 48.1836 108.812 48.3408 108.906C48.5091 109.004 48.7145 109.154 48.9586 109.353C49.2013 109.553 49.3475 109.779 49.3957 110.034L50.3486 108.41C50.3265 108.327 50.2755 108.233 50.1955 108.128C50.1156 108.025 50.0245 107.926 49.9239 107.832H49.9253Z" fill="white"/>
<path d="M60.7018 109.551L60.6053 107.72L56.2312 107.919L56.3098 109.744L60.7018 109.551Z" fill="white"/>
<path d="M56.7511 111.119C56.4243 111.202 56.1085 111.365 55.8024 111.607C55.4962 111.85 55.2177 112.166 54.9695 112.553C54.7199 112.942 54.513 113.397 54.349 113.92L53.3092 117.235L53.2941 117.285L51.6131 122.643L53.3575 123.191L56.1485 124.066L56.6959 122.322L53.9049 121.446L54.5075 119.527L57.2985 120.402L57.846 118.658L55.055 117.782L56.0947 114.467C56.1747 114.212 56.2629 113.981 56.3595 113.775C56.456 113.57 56.5553 113.396 56.6573 113.255C56.7594 113.115 56.8545 113.014 56.9442 112.952C57.0338 112.891 57.1069 112.869 57.1662 112.887L59.4346 113.599L59.982 111.854L57.7136 111.143C57.3992 111.045 57.0793 111.037 56.7539 111.119H56.7511Z" fill="white"/>
<path d="M60.4536 113.883L62.4393 114.203L60.688 125.033L62.4931 125.325L64.2444 114.495L66.2301 114.816L66.521 113.011L60.7446 112.078L60.4536 113.883Z" fill="white"/>
<path d="M67.2602 114.873L69.2721 114.906L69.0942 125.876L70.9227 125.905L71.1006 114.935L73.1111 114.968L73.1414 113.139L67.2905 113.044L67.2602 114.873Z" fill="white"/>
<path d="M76.3475 123.752L76.1103 121.755L79.0158 121.41L78.7993 119.594L75.8938 119.939L75.4843 116.489C75.4526 116.223 75.4388 115.976 75.4429 115.748C75.447 115.521 75.4664 115.322 75.5008 115.153C75.5353 114.983 75.5822 114.852 75.6387 114.758C75.6953 114.666 75.7532 114.616 75.8138 114.608L78.1746 114.327L77.9581 112.511L75.5973 112.791C75.2705 112.829 74.9754 112.953 74.7121 113.163C74.4487 113.373 74.2267 113.651 74.0474 113.997C73.8681 114.343 73.7427 114.746 73.6751 115.201C73.6061 115.657 73.6048 116.158 73.6696 116.703L74.7493 125.782L79.4708 125.221L79.2557 123.404L76.3503 123.749L76.3475 123.752Z" fill="white"/>
<path d="M84.9205 120.049C85.0142 119.923 85.0997 119.793 85.1783 119.658C85.4914 119.121 85.6872 118.526 85.7671 117.868C85.8471 117.21 85.7906 116.517 85.5989 115.786C85.4072 115.055 85.1149 114.423 84.7233 113.89C84.3303 113.356 83.8669 112.933 83.3305 112.62C82.7941 112.307 82.1984 112.111 81.5406 112.031C80.8829 111.951 80.1893 112.007 79.4584 112.199L78.751 112.385L82.0026 124.766L83.7718 124.301L83.0506 121.557C83.2464 121.466 83.4326 121.364 83.6091 121.253C83.7842 121.329 83.9524 121.423 84.1138 121.536C84.4461 121.77 84.7564 122.077 85.0446 122.454C85.3328 122.832 85.5865 123.271 85.8058 123.767L87.575 123.302C87.1447 122.383 86.6331 121.612 86.0416 120.993C85.6775 120.611 85.3038 120.298 84.9232 120.051L84.9205 120.049ZM81.2455 113.857C81.6675 113.903 82.0495 114.026 82.3915 114.226C82.7334 114.426 83.0285 114.699 83.2767 115.042C83.525 115.387 83.7097 115.788 83.8297 116.249C83.9511 116.708 83.9869 117.15 83.94 117.571C83.8931 117.993 83.7704 118.375 83.5705 118.717C83.3705 119.059 83.0989 119.354 82.7541 119.603C82.6948 119.645 82.6314 119.684 82.568 119.723L81.0221 113.839C81.0966 113.841 81.1711 113.847 81.2442 113.854L81.2455 113.857Z" fill="white"/>
<path d="M90.6363 120.154L89.8599 118.298L92.5585 117.17L91.8539 115.484L89.1539 116.612L87.8135 113.406C87.7101 113.159 87.6287 112.924 87.5695 112.705C87.5102 112.486 87.4743 112.289 87.4619 112.116C87.4495 111.944 87.4564 111.805 87.4853 111.7C87.5143 111.595 87.557 111.532 87.6136 111.508L89.8061 110.591L89.1015 108.905L86.9089 109.822C86.6056 109.949 86.3546 110.15 86.1588 110.423C85.963 110.696 85.8251 111.024 85.7479 111.408C85.6706 111.791 85.661 112.21 85.7203 112.668C85.7796 113.126 85.9147 113.607 86.1257 114.113L88.947 120.862L89.6517 122.548L94.0382 120.714L93.3335 119.028L90.6349 120.156L90.6363 120.154Z" fill="white"/>
<path d="M96.3314 106.694C96.5865 106.527 96.883 106.536 97.218 106.716C97.5545 106.897 97.8717 107.217 98.1723 107.677L103.166 115.336L104.698 114.338L99.7043 106.679C99.4051 106.22 99.0755 105.838 98.717 105.533C98.3584 105.228 97.9875 105.012 97.6055 104.882C97.2236 104.754 96.8375 104.71 96.45 104.751C96.0625 104.793 95.6902 104.931 95.333 105.164C94.9759 105.397 94.7001 105.682 94.5056 106.02C94.3457 106.298 94.2422 106.599 94.1885 106.922C93.8713 106.84 93.5542 106.816 93.2342 106.85C92.8467 106.891 92.4744 107.029 92.1173 107.262C91.8112 107.462 91.5698 107.702 91.3823 107.978L91.2747 107.813L89.7427 108.811L96.734 119.532L98.2661 118.534L93.2728 110.875C92.9736 110.416 92.8081 109.995 92.7792 109.615C92.7488 109.234 92.8619 108.961 93.117 108.794C93.3721 108.628 93.6686 108.636 94.0037 108.816C94.3402 108.997 94.6573 109.317 94.9579 109.778L99.9511 117.436L101.483 116.438L96.49 108.779C96.1907 108.32 96.0253 107.899 95.9963 107.519C95.966 107.138 96.079 106.865 96.3341 106.698L96.3314 106.694Z" fill="white"/>
<path d="M25.4073 73.1276V68.3137H28.8768V69.3672H26.7146V70.1946H28.6989V71.2481H26.7146V72.0755H28.8672V73.129H25.4073V73.1276Z" fill="white"/>
<path d="M32.1201 69.8181C32.1077 69.6609 32.0498 69.5395 31.945 69.4513C31.8402 69.363 31.683 69.3203 31.472 69.3203C31.3369 69.3203 31.2266 69.3368 31.1411 69.3686C31.0556 69.4003 30.9922 69.4444 30.9522 69.4996C30.9108 69.5547 30.8901 69.6168 30.8887 69.6871C30.886 69.745 30.8956 69.7974 30.9204 69.8429C30.9453 69.8884 30.9839 69.9312 31.0363 69.967C31.0901 70.0043 31.1576 70.0373 31.2404 70.0663C31.3231 70.0966 31.4224 70.1228 31.5368 70.1463L31.9312 70.2304C32.1974 70.2869 32.4249 70.3614 32.6152 70.4538C32.8055 70.5462 32.9599 70.6551 33.0813 70.7792C33.2026 70.9033 33.2909 71.044 33.3488 71.1984C33.4053 71.3529 33.4357 71.5225 33.437 71.7059C33.4357 72.0217 33.3557 72.2906 33.1999 72.5098C33.0427 72.7291 32.8193 72.8959 32.5283 73.0104C32.2374 73.1248 31.8885 73.1814 31.4817 73.1814C31.0749 73.1814 30.6984 73.1193 30.3882 72.9952C30.0765 72.8711 29.8352 72.6808 29.6642 72.4229C29.4932 72.1651 29.4063 71.8355 29.405 71.4329H30.646C30.6543 71.5804 30.6902 71.7045 30.7563 71.8038C30.8225 71.9045 30.9149 71.9803 31.0349 72.0313C31.1549 72.0837 31.2983 72.1085 31.4638 72.1085C31.603 72.1085 31.7202 72.092 31.814 72.0561C31.9078 72.0217 31.9795 71.9734 32.0277 71.9127C32.076 71.8521 32.1008 71.7817 32.1036 71.7031C32.1022 71.63 32.0788 71.5652 32.0319 71.5087C31.985 71.4535 31.9105 71.4025 31.8044 71.3584C31.6996 71.3143 31.5575 71.2715 31.3783 71.2329L30.8984 71.1295C30.4723 71.0371 30.1358 70.8827 29.8917 70.6648C29.6463 70.4483 29.5249 70.1518 29.5263 69.7753C29.5249 69.4692 29.6063 69.2017 29.7718 68.9728C29.9372 68.7439 30.1662 68.5646 30.4599 68.435C30.7536 68.3068 31.0914 68.2419 31.472 68.2419C31.8526 68.2419 32.1974 68.3068 32.48 68.4364C32.7641 68.566 32.982 68.7494 33.1364 68.9852C33.2909 69.221 33.3681 69.4968 33.3709 69.8112H32.1201V69.8181Z" fill="white"/>
<path d="M33.8038 69.3672V68.3137H37.9876V69.3672H36.5397V73.1276H35.2517V69.3672H33.8038Z" fill="white"/>
<path d="M38.9749 73.2035C38.7929 73.2035 38.6371 73.14 38.5088 73.0118C38.3792 72.8835 38.3158 72.7291 38.3172 72.5457C38.3158 72.3664 38.3792 72.2147 38.5088 72.0879C38.6385 71.961 38.7929 71.8976 38.9749 71.8976C39.1473 71.8976 39.299 71.961 39.4327 72.0879C39.5651 72.2147 39.6327 72.3678 39.6341 72.5457C39.6327 72.6684 39.601 72.7787 39.5389 72.878C39.4769 72.9773 39.3969 73.0573 39.2976 73.1152C39.1983 73.1745 39.0921 73.2035 38.9749 73.2035Z" fill="white"/>
<path d="M102.356 73.0711V72.1307L104.151 70.6455C104.27 70.5463 104.372 70.4539 104.458 70.367C104.543 70.2801 104.609 70.1905 104.655 70.0981C104.7 70.0057 104.724 69.9037 104.724 69.7906C104.724 69.6665 104.698 69.5617 104.645 69.4734C104.593 69.3852 104.52 69.3176 104.427 69.2707C104.335 69.2225 104.229 69.199 104.107 69.199C103.986 69.199 103.88 69.2238 103.789 69.2721C103.696 69.3204 103.626 69.3921 103.576 69.4858C103.527 69.5796 103.501 69.6941 103.501 69.8292H102.26C102.26 69.4914 102.335 69.199 102.487 68.9549C102.639 68.7109 102.854 68.5219 103.131 68.3909C103.408 68.2599 103.734 68.1938 104.106 68.1938C104.478 68.1938 104.826 68.2558 105.108 68.3785C105.391 68.5013 105.61 68.675 105.765 68.897C105.919 69.119 105.996 69.381 105.996 69.6803C105.996 69.8651 105.958 70.0485 105.882 70.2319C105.805 70.4139 105.667 70.6166 105.468 70.8372C105.27 71.0579 104.987 71.3212 104.62 71.6274L104.169 72.0038V72.0314H106.05V73.0753H102.356V73.0711Z" fill="white"/>
<path d="M108.73 73.2035C108.292 73.2021 107.915 73.1 107.596 72.9001C107.278 72.7001 107.033 72.4106 106.861 72.0327C106.689 71.6549 106.603 71.2026 106.605 70.6745C106.606 70.1449 106.693 69.6954 106.864 69.3258C107.035 68.9563 107.28 68.675 107.597 68.4819C107.915 68.2888 108.292 68.1923 108.73 68.1923C109.167 68.1923 109.545 68.2888 109.863 68.4819C110.182 68.675 110.426 68.9576 110.598 69.3272C110.77 69.6968 110.856 70.1463 110.855 70.6745C110.855 71.2054 110.769 71.6604 110.595 72.0382C110.423 72.4161 110.178 72.7043 109.86 72.9042C109.543 73.1042 109.165 73.2035 108.728 73.2035H108.73ZM108.73 72.1403C108.956 72.1403 109.141 72.0231 109.285 71.7859C109.43 71.5501 109.502 71.1792 109.5 70.6731C109.5 70.3421 109.467 70.0718 109.401 69.8622C109.335 69.6526 109.244 69.4968 109.128 69.3962C109.012 69.2955 108.879 69.2445 108.728 69.2445C108.502 69.2445 108.319 69.3589 108.175 69.5878C108.032 69.8167 107.96 70.178 107.957 70.6745C107.956 71.0109 107.988 71.2881 108.054 71.506C108.12 71.7225 108.211 71.8838 108.328 71.9872C108.446 72.0906 108.579 72.1417 108.73 72.1417V72.1403Z" fill="white"/>
<path d="M113.563 73.2035C113.126 73.2021 112.748 73.1 112.429 72.9001C112.111 72.7001 111.867 72.4106 111.694 72.0327C111.522 71.6549 111.437 71.2026 111.438 70.6745C111.439 70.1449 111.526 69.6954 111.697 69.3258C111.868 68.9563 112.114 68.675 112.431 68.4819C112.748 68.2888 113.126 68.1923 113.563 68.1923C114 68.1923 114.378 68.2888 114.696 68.4819C115.015 68.675 115.259 68.9576 115.431 69.3272C115.604 69.6968 115.689 70.1463 115.688 70.6745C115.688 71.2054 115.602 71.6604 115.429 72.0382C115.256 72.4161 115.011 72.7043 114.694 72.9042C114.376 73.1042 113.999 73.2035 113.561 73.2035H113.563ZM113.563 72.1403C113.789 72.1403 113.974 72.0231 114.119 71.7859C114.263 71.5501 114.335 71.1792 114.334 70.6731C114.334 70.3421 114.301 70.0718 114.234 69.8622C114.168 69.6526 114.077 69.4968 113.961 69.3962C113.846 69.2955 113.712 69.2445 113.561 69.2445C113.335 69.2445 113.152 69.3589 113.009 69.5878C112.865 69.8167 112.793 70.178 112.791 70.6745C112.789 71.0109 112.821 71.2881 112.887 71.506C112.953 71.7225 113.044 71.8838 113.162 71.9872C113.279 72.0906 113.413 72.1417 113.563 72.1417V72.1403Z" fill="white"/>
<path d="M118.264 73.1373C117.875 73.1373 117.529 73.0766 117.224 72.9566C116.919 72.8367 116.679 72.6726 116.504 72.4657C116.329 72.2589 116.242 72.0258 116.242 71.7652C116.242 71.5666 116.292 71.3846 116.391 71.2205C116.49 71.0564 116.626 70.9199 116.794 70.811C116.963 70.702 117.152 70.6317 117.36 70.6V70.5627C117.086 70.5159 116.861 70.3945 116.685 70.1973C116.508 70.0001 116.42 69.7685 116.42 69.501C116.42 69.2486 116.5 69.0238 116.66 68.828C116.82 68.6308 117.038 68.4764 117.315 68.3633C117.592 68.2502 117.908 68.1937 118.262 68.1937C118.617 68.1937 118.933 68.2502 119.21 68.3647C119.487 68.4778 119.706 68.6336 119.866 68.8308C120.026 69.028 120.106 69.2514 120.106 69.5023C120.106 69.7712 120.016 70.0043 119.838 70.2001C119.661 70.3959 119.436 70.5172 119.166 70.5641V70.6014C119.372 70.6331 119.56 70.7034 119.73 70.8123C119.899 70.9213 120.034 71.0578 120.134 71.2219C120.234 71.386 120.284 71.568 120.284 71.7666C120.284 72.0272 120.197 72.2603 120.022 72.4671C119.847 72.6739 119.607 72.838 119.302 72.958C118.997 73.078 118.651 73.1386 118.262 73.1386L118.264 73.1373ZM118.264 72.2354C118.388 72.2354 118.497 72.2106 118.593 72.161C118.69 72.1113 118.764 72.041 118.821 71.9527C118.876 71.8645 118.904 71.7638 118.904 71.6535C118.904 71.5432 118.876 71.4439 118.821 71.357C118.766 71.2715 118.69 71.2026 118.593 71.1543C118.497 71.1061 118.388 71.0799 118.264 71.0799C118.14 71.0799 118.032 71.1047 117.936 71.1543C117.839 71.204 117.763 71.2715 117.708 71.357C117.653 71.4439 117.624 71.5418 117.624 71.6535C117.624 71.7652 117.651 71.8645 117.708 71.9514C117.763 72.0396 117.839 72.1086 117.936 72.1596C118.032 72.2106 118.141 72.2354 118.264 72.2354ZM118.264 70.1766C118.373 70.1766 118.471 70.1546 118.555 70.1091C118.639 70.0636 118.706 70.0015 118.755 69.9215C118.803 69.8416 118.828 69.7519 118.828 69.6513C118.828 69.5506 118.803 69.4623 118.755 69.3851C118.706 69.3079 118.639 69.2458 118.555 69.2017C118.471 69.1576 118.373 69.1341 118.264 69.1341C118.155 69.1341 118.058 69.1562 117.973 69.2017C117.887 69.2458 117.82 69.3079 117.771 69.3851C117.723 69.4623 117.698 69.552 117.698 69.6513C117.698 69.7505 117.723 69.8416 117.771 69.9202C117.82 69.9988 117.887 70.0622 117.973 70.1077C118.058 70.1546 118.155 70.1766 118.264 70.1766Z" fill="white"/>
<path d="M70.5007 135.738C34.5292 135.738 5.26349 106.472 5.26349 70.5007C5.26349 34.5292 34.5278 5.26349 70.5007 5.26349C106.474 5.26349 135.738 34.5292 135.738 70.5007C135.738 106.472 106.472 135.738 70.5007 135.738ZM70.5007 7.36778C35.6889 7.36778 7.36778 35.6889 7.36778 70.5007C7.36778 105.313 35.6889 133.634 70.5007 133.634C105.313 133.634 133.634 105.313 133.634 70.5007C133.634 35.6889 105.313 7.36778 70.5007 7.36778Z" fill="white"/>
<path d="M70.5007 137.913C33.3295 137.913 3.08887 107.671 3.08887 70.5007C3.08887 33.3308 33.3295 3.08887 70.5007 3.08887C107.672 3.08887 137.913 33.3295 137.913 70.5007C137.913 107.672 107.671 137.913 70.5007 137.913ZM70.5007 5.26349C34.5278 5.26349 5.26349 34.5278 5.26349 70.5007C5.26349 106.474 34.5292 135.738 70.5007 135.738C106.472 135.738 135.738 106.472 135.738 70.5007C135.738 34.5292 106.472 5.26349 70.5007 5.26349Z" fill="#019146"/>
<path d="M117.474 40.8365L116.055 41.9466C121.263 50.2259 124.279 60.0178 124.279 70.5007C124.279 85.8444 117.82 99.7071 107.477 109.514L108.433 111.075C119.28 100.927 126.07 86.4925 126.07 70.5021C126.07 59.6028 122.915 49.4274 117.472 40.8379L117.474 40.8365Z" fill="white"/>
<path d="M23.3609 41.0985C18.0188 49.6315 14.9286 59.7117 14.9286 70.5007C14.9286 85.5438 20.9367 99.2092 30.6804 109.226L31.8346 107.842C22.4839 98.1612 16.7226 84.9922 16.7226 70.5021C16.7226 60.1061 19.6888 50.3899 24.8171 42.1548L23.3623 41.0999L23.3609 41.0985Z" fill="white"/>
</g>
<defs>
<clipPath id="clip0_25_242">
<rect width="141" height="141" fill="white"/>
</clipPath>
</defs>
</svg>
