<svg xmlns="http://www.w3.org/2000/svg" width="74" height="30" viewBox="0 0 74 30" fill="none">
  <g clip-path="url(#clip0_32_908)">
    <path d="M35.5725 3.16382H38.0251C40.3245 3.16382 41.9531 4.49368 41.9531 6.3761C41.9531 8.25851 40.3245 9.59774 38.0251 9.59774H35.5725V3.16382ZM38.3317 7.94946C39.3281 7.94946 40.037 7.29389 40.037 6.3761C40.037 5.4583 39.3281 4.8121 38.3317 4.8121H37.4311V7.94946H38.3317Z" fill="white"/>
    <path d="M42.892 3.16382H44.7507V9.59774H42.892V3.16382Z" fill="white"/>
    <path d="M48.947 5.83299H52.0319V8.56764C51.3517 9.28877 50.3457 9.7102 49.311 9.7102C47.3374 9.7102 45.68 8.18367 45.68 6.37618C45.68 4.56868 47.3374 3.05151 49.311 3.05151C50.3457 3.05151 51.3517 3.47295 52.0319 4.18471L50.6619 5.35536C50.3361 4.94329 49.8379 4.6998 49.311 4.6998C48.3817 4.6998 47.5961 5.46775 47.5961 6.37618C47.5961 7.2846 48.3817 8.06192 49.311 8.06192C49.6368 8.06192 49.9529 7.96827 50.2307 7.79969V7.17222H48.947V5.83299Z" fill="white"/>
    <path d="M53.0665 3.16382H54.9252V9.59774H53.0665V3.16382Z" fill="white"/>
    <path d="M57.6939 4.78401H55.7491V3.16382H61.4974V4.78401H59.5526V9.59774H57.6939V4.78401Z" fill="white"/>
    <path d="M66.0577 8.73614H63.768L63.4327 9.59774H61.3345L63.8638 3.16382H65.9619L68.4912 9.59774H66.3931L66.0577 8.73614ZM65.5308 7.39691L64.9177 5.83291L64.2949 7.39691H65.5308Z" fill="white"/>
    <path d="M74 7.97755V9.59774H69.0756V3.16382H70.9342V7.97755H74Z" fill="white"/>
    <path d="M35.0743 17.2664L36.109 16.0583C36.7797 16.5734 37.5078 16.845 38.2838 16.845C38.7916 16.845 39.0598 16.6764 39.0598 16.3954C39.0598 16.0864 38.8299 16.0396 37.9198 15.8335C36.4923 15.5151 35.3905 15.1499 35.3905 13.8106C35.3905 12.4714 36.4252 11.6941 37.9868 11.6941C39.1269 11.6941 40.0179 11.9938 40.746 12.5651L39.8167 13.8481C39.2035 13.4173 38.5329 13.2019 37.9389 13.2019C37.4886 13.2019 37.2683 13.3798 37.2683 13.6233C37.2683 13.9511 37.4982 14.0541 38.4371 14.2508C39.97 14.5692 40.928 14.9719 40.928 16.1988C40.928 17.5567 39.8646 18.3528 38.2168 18.3528C37.0288 18.3528 35.9078 17.9875 35.0743 17.2664Z" fill="white"/>
    <path d="M43.6202 13.4266V14.1477H46.753V15.7679H43.6202V16.6201H47.0596V18.2403H41.7615V11.8064H47.0596V13.4266H43.6202Z" fill="white"/>
    <path d="M49.8571 13.4266V14.1477H52.9899V15.7679H49.8571V16.6201H53.2965V18.2403H47.9985V11.8064H53.2965V13.4266H49.8571Z" fill="white"/>
    <path d="M54.2354 11.8064H56.688C58.9874 11.8064 60.616 13.1363 60.616 15.0187C60.616 16.9011 58.9874 18.2403 56.688 18.2403H54.2354V11.8064ZM56.9946 16.592C57.991 16.592 58.6999 15.9365 58.6999 15.0187C58.6999 14.1009 57.991 13.4547 56.9946 13.4547H56.094V16.592H56.9946Z" fill="white"/>
    <path d="M35.0743 25.8621L36.109 24.654C36.7797 25.1691 37.5078 25.4407 38.2838 25.4407C38.7916 25.4407 39.0598 25.2721 39.0598 24.9911C39.0598 24.6821 38.8299 24.6353 37.9198 24.4292C36.4923 24.1108 35.3905 23.7456 35.3905 22.4063C35.3905 21.0671 36.4252 20.2898 37.9868 20.2898C39.1269 20.2898 40.0179 20.5895 40.746 21.1608L39.8167 22.4438C39.2035 22.013 38.5329 21.7976 37.9389 21.7976C37.4886 21.7976 37.2683 21.9755 37.2683 22.219C37.2683 22.5468 37.4982 22.6498 38.4371 22.8465C39.97 23.1649 40.928 23.5676 40.928 24.7945C40.928 26.1524 39.8646 26.9485 38.2168 26.9485C37.0288 26.9485 35.9078 26.5832 35.0743 25.8621Z" fill="white"/>
    <path d="M43.3519 22.0223H41.407V20.4021H47.1554V22.0223H45.2105V26.836H43.3519V22.0223Z" fill="white"/>
    <path d="M47.8835 23.9796V20.4021H49.7421V23.886C49.7421 24.7101 50.269 25.3001 51.0163 25.3001C51.7636 25.3001 52.2905 24.7101 52.2905 23.886V20.4021H54.1491V23.9796C54.1491 25.7216 52.8558 26.9484 51.0163 26.9484C49.1769 26.9484 47.8835 25.7216 47.8835 23.9796Z" fill="white"/>
    <path d="M55.2318 20.4021H57.6844C59.9837 20.4021 61.6124 21.732 61.6124 23.6144C61.6124 25.4968 59.9837 26.836 57.6844 26.836H55.2318V20.4021ZM57.9909 25.1877C58.9873 25.1877 59.6963 24.5322 59.6963 23.6144C59.6963 22.6966 58.9873 22.0504 57.9909 22.0504H57.0904V25.1877H57.9909Z" fill="white"/>
    <path d="M62.5513 20.4021H64.4099V26.836H62.5513V20.4021Z" fill="white"/>
    <path d="M65.3392 23.6145C65.3392 21.807 66.9775 20.2898 68.9224 20.2898C70.8672 20.2898 72.5055 21.807 72.5055 23.6145C72.5055 25.4219 70.8672 26.9485 68.9224 26.9485C66.9775 26.9485 65.3392 25.4219 65.3392 23.6145ZM70.5894 23.6145C70.5894 22.706 69.8229 21.9381 68.9224 21.9381C68.0218 21.9381 67.2553 22.706 67.2553 23.6145C67.2553 24.5229 68.0218 25.3002 68.9224 25.3002C69.8229 25.3002 70.5894 24.5322 70.5894 23.6145Z" fill="white"/>
    <path d="M23.0076 6.83358C21.7606 6.83358 20.5263 7.06303 19.3734 7.51568C18.2222 7.96677 17.1747 8.62858 16.2933 9.46365L15.9675 9.7727L15.8941 9.3341C15.5093 7.0521 14.2782 4.97458 12.4228 3.47302C10.5657 1.97145 8.20413 1.14575 5.76269 1.14575H0V5.17905C0 7.75449 1.07941 10.2269 3.0019 12.0516C4.92599 13.8762 7.53668 14.9017 10.2591 14.9017H13.4974V24.5105C12.4994 24.9725 11.808 25.9652 11.808 27.1156C11.808 28.7092 13.1301 30.0016 14.7604 30.0016C16.3907 30.0016 17.7128 28.7092 17.7128 27.1156C17.7128 25.9637 17.0214 24.9725 16.0218 24.5105V19.1676H20.0089C22.5334 19.1676 24.9525 18.217 26.7361 16.5266C28.518 14.8362 29.5192 12.5448 29.5192 10.1582V6.83514H23.0092L23.0076 6.83358ZM13.2595 12.5214H10.2607C8.21051 12.5214 6.24331 11.7488 4.79346 10.3736C3.34201 8.99695 2.52447 7.12858 2.52447 5.17905V3.52452H5.76269C7.81292 3.52452 9.78012 4.29716 11.2316 5.67229C12.683 7.04898 13.5006 8.91734 13.5006 10.8669V12.5214H13.2626H13.2595ZM26.9947 9.44492V10.1567C26.9947 11.9173 26.257 13.6062 24.9461 14.8487C23.6352 16.0911 21.8596 16.7888 20.0089 16.7888H16.0218V15.8445C16.0218 14.0838 16.7595 12.395 18.0705 11.1525C19.3814 9.91006 21.157 9.21235 23.0076 9.21235H26.9947V9.44492Z" fill="white"/>
    <path d="M13.5501 2.1384C13.6347 2.20708 13.713 2.27888 13.796 2.34912C14.1138 2.32414 14.4347 2.30853 14.7604 2.30853C17.7416 2.30853 20.4752 3.36368 22.5925 5.1103C22.7266 5.10562 22.8608 5.10094 22.9965 5.10094H25.9106C23.2456 1.98387 19.2393 0 14.7588 0C13.4208 0 12.1274 0.181061 10.8979 0.510406C11.8464 0.936525 12.7405 1.48127 13.5501 2.13684V2.1384Z" fill="white"/>
    <path d="M27.9688 17.7676C27.2726 18.4278 26.4998 18.9897 25.6726 19.4486C24.3473 22.0693 22.0624 24.1468 19.2697 25.241C19.5203 25.817 19.6593 26.4507 19.6593 27.1156C19.6593 27.2717 19.6513 27.4262 19.6353 27.5776C24.5373 25.87 28.2259 21.6604 29.0913 16.522C28.7528 16.9621 28.3775 17.3805 27.9688 17.7676Z" fill="white"/>
    <path d="M2.59475 14.1992C2.59475 14.1352 2.59795 14.0728 2.59955 14.0088C2.31373 13.7824 2.03589 13.5452 1.76923 13.2923C1.28063 12.8288 0.839921 12.3246 0.445523 11.7908C0.308202 12.5743 0.233154 13.3782 0.233154 14.1992C0.233154 20.3693 4.26017 25.617 9.88234 27.5759C9.86797 27.4229 9.85839 27.27 9.85839 27.1139C9.85839 26.4489 9.99731 25.8152 10.248 25.2393C5.76751 23.4833 2.59316 19.1987 2.59316 14.1992H2.59475Z" fill="white"/>
  </g>
  <defs>
    <clipPath id="clip0_32_908">
      <rect width="74" height="30" fill="white"/>
    </clipPath>
  </defs>
</svg>